<svg xmlns="http://www.w3.org/2000/svg" fill="none" viewBox="0 0 200 200" height="400" width="400"><g id="agency--work-agency"><path id="line" fill="#000000" fill-rule="evenodd" d="M48.1714 128.956C48.5912 129.23 48.9979 129.495 49.3896 129.75C36.8152 131.77 26.7144 133.534 19.3449 134.845C19.3335 134.576 19.3221 134.304 19.3105 134.028C28.2273 132.302 38.0867 130.588 48.1714 128.956ZM14.2221 135.036C11.8306 135.521 9.52426 136.006 7.31895 136.489C5.47995 136.892 4.91495 137.078 5.01295 137.245C5.09759 137.39 8.27366 136.824 14.2788 135.749C14.26 135.513 14.2411 135.275 14.2221 135.036Z" clip-rule="evenodd"></path><g id="table"><path id="Subtract" fill="#000000" fill-rule="evenodd" d="M138.755 77.8193C136.322 78.1967 133.224 78.6782 129.606 79.2415C129.613 79.5057 129.619 79.7696 129.625 80.0335C133.194 79.4629 136.294 78.9655 138.796 78.5618C138.782 78.3162 138.769 78.0686 138.755 77.8193ZM166.224 86.5924C166.75 86.5412 167.316 86.4857 167.906 86.4273C179.851 91.6527 192.591 97.2216 193.936 97.7929H193.933C194.024 97.8318 194.108 97.8661 194.185 97.8977C194.887 98.1853 195.026 98.2424 194.992 99.3949C194.989 99.4959 192.821 160.638 192.369 161.017C191.977 161.346 191.405 161.707 191.193 161.842C191.144 161.873 191.114 161.892 191.11 161.895C190.302 162.661 188.744 161.64 187.862 160.957C187.504 160.679 187.499 160.541 187.441 158.847C187.436 158.708 187.431 158.56 187.425 158.4C187.414 158.077 187.354 154.196 187.27 148.681C187.049 134.271 186.656 108.711 186.506 106.34C186.5 106.238 175.708 108.938 160.569 112.725C150.219 115.314 137.836 118.412 125.479 121.47C115.879 123.846 106.294 126.196 97.7108 128.301C79.6454 132.732 66.0153 136.074 66.02 136.275C66.0201 136.275 66.02 136.276 66.02 136.278C66.018 136.346 65.9725 137.918 66.327 186.777C66.3297 187.145 66.3348 187.451 66.339 187.707C66.3587 188.896 66.3605 189.001 66.019 189.185C65.6268 189.397 65.3013 189.582 65.026 189.738C63.9014 190.376 63.6134 190.539 63.035 190.172C62.5314 189.851 62.176 189.698 61.9175 189.586C61.4154 189.369 61.2793 189.311 61.134 188.49C60.7752 186.459 59.879 177.307 58.8728 167.031C57.3694 151.679 55.6203 133.816 55.05 133.441L18.992 110.132C18.9063 110.083 18.8382 110.026 18.7871 110.039C18.5473 110.097 18.6839 111.693 19.148 122.928C20.4867 155.311 20.5298 156.225 20.5418 157.14C20.5426 157.198 20.5432 157.256 20.544 157.323C20.55 157.902 20.484 157.957 19.084 158.923C18.7019 159.185 18.5793 159.128 17.2261 158.5C17.0743 158.43 16.907 158.352 16.722 158.267C16.5505 158.188 16.4298 158.142 16.3405 158.061C15.9926 157.745 16.1201 156.905 15.563 151.6C15.4603 150.622 14.9849 144.638 14.4021 137.301C13.385 124.497 12.0406 107.574 11.778 105.945C11.7684 105.885 11.7695 105.829 11.7705 105.772C11.7745 105.559 11.7785 105.35 11.206 105.011C10.5262 104.608 10.1434 104.438 9.92845 104.145C9.61669 103.72 9.65803 103.036 9.65803 101.007C9.64203 101.007 9.63003 100.147 9.70203 99.0519C9.74603 98.3739 10.66 98.1599 12.174 97.8929C16.5584 97.1189 26.3003 95.5323 38.6165 93.5618C38.6465 93.8394 38.6768 94.1136 38.7074 94.3839C26.4632 96.292 17.0632 97.738 13.495 98.2479C11.109 98.5889 10.311 98.8119 10.399 98.8879L60.938 131.088C61.151 131.242 193.284 98.4919 193.318 98.2309C193.325 98.1739 192.963 98.0234 191.308 97.3349C188.438 96.1416 181.681 93.3323 166.224 86.5924ZM79.6913 87.9523C82.9244 87.4423 86.1549 86.9323 89.3525 86.4271C89.3494 86.3899 89.3462 86.3527 89.343 86.3152C89.3211 86.0559 89.2995 85.8003 89.2782 85.5484C86.0995 86.0475 82.8839 86.5529 79.6607 87.06C79.6718 87.3656 79.682 87.6632 79.6913 87.9523ZM19.4629 157.817C19.8457 157.538 19.9652 157.451 19.935 157.235V157.236C19.7893 156.204 19.3434 145.305 18.8886 134.185C18.404 122.339 17.9092 110.243 17.756 109.558C17.7409 109.491 17.7314 109.441 17.7121 109.394C17.6331 109.205 17.3906 109.084 15.933 108.135C15.464 107.83 18.321 152.027 18.754 157.804C18.78 158.159 18.794 158.32 19.057 158.119C19.2167 157.997 19.351 157.899 19.4629 157.817ZM10.4555 103.263C10.5058 103.71 11.4577 104.057 28.218 114.951C57.6741 134.096 60.3158 135.943 60.4615 135.764C60.4852 135.735 60.4427 135.652 60.439 135.581C60.3874 134.625 60.3628 133.928 60.3446 133.412C60.2995 132.131 60.2938 131.968 60.01 131.749C59.4375 131.306 57.9366 130.35 54.0267 127.859C48.7584 124.504 39.1165 118.362 21.479 106.936C11.8412 100.691 10.494 99.6836 10.3612 99.8242C10.3274 99.8599 10.3721 99.9699 10.379 100.087C10.411 100.62 10.467 101.573 10.453 103.169C10.4528 103.203 10.4521 103.233 10.4555 103.263ZM65.1951 188.59C65.315 188.526 65.4456 188.457 65.588 188.382H65.587C65.607 188.372 65.327 138.953 65.21 136.663C65.1954 136.36 65.1777 136.365 64.1929 136.63C64.0368 136.672 63.8565 136.72 63.648 136.775C61.7452 137.275 61.3242 137.319 61.2478 137.506C61.2224 137.567 61.2351 137.645 61.244 137.76C61.7015 143.695 62.3166 157.405 62.8464 169.213C63.2779 178.831 63.6529 187.188 63.84 189.058C63.8638 189.296 63.9077 189.273 65.1951 188.59ZM192.043 160.527C192.049 160.516 192.099 159.541 192.085 158.36L192.084 158.361C192.08 158.046 192.263 153.017 192.512 146.15C193.076 130.585 193.982 105.576 193.842 104.6C193.837 104.563 193.834 104.536 193.819 104.52C193.746 104.438 193.388 104.609 191.071 105.139C190.814 105.197 190.814 105.201 190.856 106.82C190.903 108.672 191.006 112.638 190.84 121.218L190.84 121.293C190.829 123.178 190.614 159.761 190.858 161.225C190.861 161.223 190.88 161.212 190.913 161.194C191.143 161.065 192.015 160.578 192.043 160.527ZM194.033 103.248C194.1 102.772 194.322 100.082 194.326 99.1429V99.1439C194.326 99.1212 194.328 99.0949 194.33 99.0669C194.343 98.9106 194.36 98.7045 194.025 98.8029C193.698 98.8959 61.344 131.827 61.332 131.829C61.0173 131.907 61.0177 131.913 61.062 132.498L61.066 132.551C61.0788 132.725 61.0885 133.495 61.0982 134.27C61.1082 135.071 61.1183 135.879 61.132 136.038C61.165 136.429 61.28 136.479 61.631 136.411C62.726 136.197 193.959 103.769 194.033 103.248Z" clip-rule="evenodd"></path></g><g id="computers"><path id="Subtract_2" fill="#000000" fill-rule="evenodd" d="M173.521 52.6355C173.454 52.6365 173.386 52.6374 173.316 52.6374H173.317C170.584 52.8359 163.275 53.1601 155.679 53.4971C147.241 53.8714 138.448 54.2614 135.177 54.5124C134.316 54.5782 133.918 54.5703 133.734 54.7647C133.569 54.9395 133.577 55.2778 133.577 55.9804C133.578 57.9834 134.955 82.5794 135.055 83.6984C135.169 84.9774 135.244 85.0694 137 84.9934C137.599 84.9676 138.312 84.9198 139.205 84.8483C138.608 77.4035 137.951 60.2986 137.949 59.8252C137.942 58.3519 138.085 58.3435 139.415 58.2653C139.63 58.2526 139.877 58.2381 140.159 58.2152C150.996 57.3382 174.664 56.6392 174.666 56.7272L174.667 56.7252C174.688 56.7252 174.709 56.7252 174.73 56.7252C174.66 54.9014 174.617 53.6619 174.617 53.4154C174.616 52.6203 174.144 52.6269 173.521 52.6355Z" clip-rule="evenodd"></path><path id="Subtract_3" fill="#000000" fill-rule="evenodd" d="M126.054 59.6148C118.631 59.8761 96.2843 61.3024 88.122 61.9231C87.3678 61.98 87.4002 62.3163 87.5355 63.7203C87.5691 64.0697 87.6092 64.4853 87.645 64.9791C87.692 65.623 87.7215 66.0783 87.7528 66.559C87.8754 68.445 88.0234 70.7225 89.343 86.3151C89.4275 87.313 89.4982 88.181 89.5598 88.9359C89.5824 89.213 89.6037 89.4748 89.624 89.7223C88.2714 89.9272 87.2933 90.077 86.5891 90.1882C84.8051 90.4702 84.7839 90.2133 84.6481 88.5724C84.6442 88.5255 84.6402 88.4774 84.6361 88.4282C84.0371 81.2762 82.4951 60.0622 82.4041 58.7892C82.2951 57.2749 82.534 57.2423 83.4569 57.1164C83.5835 57.0991 83.7229 57.0801 83.8761 57.0552C90.8421 55.9282 123.915 53.4822 124.541 53.4422C125.686 53.3692 125.778 53.6532 125.778 54.9562C125.773 54.9568 125.884 56.8145 126.054 59.6148Z" clip-rule="evenodd"></path><path id="Subtract_4" fill="#000000" fill-rule="evenodd" d="M71.347 60.1875C71.2695 59.4724 71.206 58.887 71.162 58.4085H71.163C71.0495 57.1751 70.6521 57.238 69.6419 57.3979C69.4604 57.4266 69.2591 57.4585 69.036 57.4865C66.7395 57.7742 63.2346 58.3366 59.194 58.9848C56.6912 59.3863 53.983 59.8208 51.229 60.2435C45.2355 61.1633 40.5965 61.8573 37.0087 62.394C30.5409 63.3616 27.4892 63.8182 26.076 64.1655C24.9583 64.4396 24.975 64.6547 25.0613 65.7637C25.0767 65.9614 25.0943 66.1876 25.108 66.4475C25.187 67.9495 27.234 91.6525 28.661 97.4315C28.6833 97.5214 28.7015 97.608 28.7189 97.6906C28.8605 98.3645 28.9443 98.7634 30.702 98.4115C32.4064 98.0698 35.3759 97.4224 38.9814 96.6332C38.1337 90.2157 37.4871 80.3202 37.1078 74.5143C36.9493 72.0894 36.8375 70.3779 36.7771 69.9313L36.7791 69.9323C36.795 69.8642 36.8087 69.8005 36.8215 69.7409C36.9021 69.3653 36.9471 69.1558 37.2811 69.0833C44.6774 67.4845 59.208 65.4859 71.7388 63.9983C71.5907 62.4344 71.4552 61.1848 71.347 60.1875Z" clip-rule="evenodd"></path><path id="vector" fill="#000000" d="M177.891 57.6163C177.747 56.6773 177.675 56.7243 174.667 56.7243C174.665 56.6363 150.997 57.3343 140.16 58.2123C138.135 58.3763 137.94 58.1103 137.95 59.8223C137.952 60.3553 138.786 81.9763 139.428 87.1473C139.565 88.2543 139.603 88.4963 140.134 88.5473C142.275 88.7563 152.6 87.7333 154.316 87.6253C154.831 87.5933 154.725 87.5393 154.813 88.2093C155.027 89.8513 155.114 89.7953 154.753 89.8413C154.631 89.8573 152.072 90.3763 151.336 90.5393C150.664 90.6883 150.652 90.7263 150.712 91.3993C150.758 91.9073 150.543 91.6703 156.236 95.0923C156.611 95.3203 156.645 95.2883 157.966 95.1323C159.588 94.9413 168.449 93.4483 168.95 93.4163C169.341 93.3923 169.809 93.3203 169.752 92.9733C169.616 92.1813 169.728 92.0893 169.421 91.9043C163.986 88.6163 164.445 88.5633 162.604 88.7963C162.254 88.8433 162.417 88.3163 162.295 87.1203C162.279 86.9723 162.311 86.9593 162.73 86.9223C162.938 86.9063 176.834 85.6033 178.961 85.1593C179.485 85.0493 179.729 85.0233 179.715 84.1853C179.661 80.9173 178.245 59.9303 177.892 57.6143L177.891 57.6163ZM177.708 61.7083C177.72 61.9063 178.66 77.9313 178.671 78.6173C178.677 78.9403 178.755 79.2083 178.469 79.2763C178.184 79.3443 174.268 79.6433 172.923 79.6673C172.428 79.6753 172.395 79.7493 172.342 79.0883C172.324 78.8593 171.061 63.5313 170.956 61.4663C170.946 61.2773 170.936 61.2223 171.269 61.1933C171.564 61.1673 176.574 60.8763 177.382 60.8503C177.629 60.8403 177.657 60.7283 177.707 61.7083H177.708ZM175.332 57.3113C177.337 57.2293 177.262 57.0783 177.319 57.4753C177.406 58.0843 177.495 59.6043 177.477 59.7993C177.415 60.3973 177.387 59.9453 171.053 60.4133C170.658 60.4433 170.741 59.2053 170.646 57.7783C170.614 57.2913 170.633 57.4993 175.333 57.3113H175.332ZM171.707 79.0003C171.757 79.4753 171.779 79.7603 171.416 79.8043C168.699 80.1333 161.421 80.5163 161.138 80.5083C161.014 80.5043 160.89 80.4723 160.885 80.3203C160.875 80.0123 159.987 66.3813 159.889 61.9183C159.883 61.6533 159.877 61.7093 162.076 61.6213C170.124 61.3043 168.72 61.2823 170.162 61.2243C170.379 61.2143 170.355 61.3443 170.355 61.6893C170.351 62.7603 171.39 75.9653 171.708 79.0003H171.707ZM160.009 80.6363C154.7 80.9773 150.511 81.3823 150.018 81.1393C149.634 80.9473 149.564 76.9803 149.005 62.4783C148.985 61.9953 149.107 62.3563 156.454 61.9033C159.279 61.7283 159.279 61.6263 159.295 61.9193C159.616 67.5573 160.141 79.4253 160.191 79.4253C160.191 80.3593 160.285 80.6183 160.01 80.6363H160.009ZM138.639 58.8233C148.75 58.5093 165.242 57.4763 169.525 57.4413C170.094 57.4353 170.086 57.3553 170.15 57.9963C170.174 58.2313 170.222 58.7703 170.341 60.0233C170.395 60.5873 170.389 60.4503 165.639 60.6353C158.36 60.9183 138.669 62.0573 138.657 62.0373C138.597 61.9413 138.581 59.8853 138.446 59.1793C138.386 58.8643 138.506 58.8283 138.64 58.8243L138.639 58.8233ZM139.152 74.1273C139.136 73.9133 139.024 69.8143 138.725 63.6043C138.715 63.3923 138.663 63.1813 138.655 62.9673C138.631 62.3413 138.641 62.7763 146.35 62.4013C148.696 62.2873 148.586 62.1203 148.608 62.7963C148.764 67.6103 148.893 75.6733 149.316 80.9103C149.354 81.3293 149.235 81.2153 140.115 81.9833C139.607 82.0283 139.698 82.0323 139.152 74.1273V74.1273ZM151.958 87.1963C151.246 87.2723 141.464 87.9823 140.433 88.0503C140.173 88.0683 140.239 87.9683 140.141 86.8233C139.773 82.5643 139.743 82.6003 139.981 82.5563C141.773 82.2273 151.215 81.7583 151.544 81.7383C151.909 81.7163 151.889 81.8083 151.899 82.0713C152.003 84.7463 151.999 85.6183 152.284 86.7533C152.334 86.9463 152.384 87.1503 151.957 87.1963H151.958ZM162.647 89.1653C163.784 88.9793 163.904 89.0073 164.213 89.2253C165.773 90.3263 168.823 92.0903 168.933 92.2003C168.294 92.5133 159.191 93.7283 157.352 94.1693C156.995 94.2553 157.013 94.2153 155.242 93.2063C151.557 91.1033 151.31 91.0433 151.601 90.9523C152.792 90.5753 153.903 90.3473 154.711 90.1463C154.938 90.0903 155.024 90.0683 155.07 90.3233C155.096 90.4653 155.242 91.1793 155.308 91.5883C155.371 91.9753 155.435 91.9473 159.966 91.1953C162.136 90.8343 162.248 90.8653 162.278 90.5413C162.392 89.2843 162.368 89.2123 162.647 89.1663V89.1653ZM155.395 87.6353C155.728 87.5673 160.821 87.0923 161.278 87.0603C161.581 87.0383 161.705 86.9703 161.721 87.2623C161.773 88.1813 161.823 89.2273 161.857 90.0873C161.869 90.3793 161.64 90.3243 160.898 90.4363C155.33 91.2703 155.727 91.4723 155.699 91.0843C155.573 89.3603 155.173 87.6813 155.396 87.6353H155.395ZM165.699 85.9233C162.717 86.1823 153.305 87.0613 153.041 87.0983C152.728 87.1433 152.712 86.9843 152.698 86.7033C152.467 81.7573 152.231 81.7623 152.584 81.7753C153.043 81.7913 152.586 81.7693 163.682 81.0553C166.11 80.8973 165.986 80.6323 166.06 81.3303C166.521 85.7553 166.545 85.3743 166.561 85.7513C166.565 85.8173 166.383 85.8633 165.699 85.9223V85.9233ZM178.479 84.5573C176.582 84.7213 172.48 85.6003 167.201 85.8533C166.822 85.8713 166.898 85.7753 166.87 85.0413C166.763 82.2003 166.768 81.7623 166.631 81.0313C166.583 80.7803 166.579 80.8973 168.343 80.7543C170.76 80.5593 177.546 80.1293 177.548 80.1503C179.206 80.1503 178.739 79.7993 178.943 82.2133C179.124 84.3653 179.449 84.4733 178.48 84.5573H178.479Z"></path><path id="vector_2" fill="#000000" d="M129.766 87.8473C129.653 80.5013 129.545 75.0723 129.17 66.4703C128.873 59.6513 128.979 59.6093 128.22 59.5793C125.198 59.4573 97.4341 61.2173 88.1231 61.9233C87.1811 61.9953 87.4671 62.5013 87.6461 64.9793C87.8771 68.1493 87.6861 66.7493 89.3441 86.3153C89.9901 93.9623 89.8351 93.9803 90.8821 93.9523C92.3401 93.9143 92.9311 93.9323 96.9071 93.4473C103.897 92.5953 103.026 92.4433 103.026 93.3133C103.026 94.0093 103.162 93.7463 99.1761 94.5383C96.7661 95.0173 96.8521 94.8833 96.9161 95.4063C97.0061 96.1423 96.8021 96.3403 97.1651 96.5433C102.097 99.3223 103.04 100.042 103.93 99.9193C107.99 99.3563 116.498 97.8003 116.52 97.7963C118.924 97.3773 118.886 97.4493 118.878 97.0923C118.874 96.8813 118.798 96.6693 118.802 96.4583C118.81 96.0753 118.588 95.9113 118.279 95.7663C114.082 93.7933 111.171 92.2833 110.736 92.4583C110.405 92.5923 110.532 92.2723 110.481 92.1133C110.24 91.3753 109.031 91.8023 125.667 89.6273C129.785 89.0883 129.788 89.2633 129.767 87.8473H129.766ZM110.513 93.2923C110.519 93.0223 110.774 92.8673 111.019 92.9933C116.037 95.5663 117.511 96.0593 117.764 96.3593C116.962 96.7703 105.291 98.5413 104.033 98.7073C103.349 98.7973 103.853 98.9353 97.6771 95.4373C97.5241 95.3493 97.5831 95.4293 97.4731 95.2643C97.8861 95.1543 101.956 94.6253 102.868 94.4043C103.223 94.3183 103 94.5183 103.315 95.4493C103.579 96.2333 103.956 96.2433 109.057 95.3033C110.837 94.9773 110.472 95.3203 110.514 93.2923H110.513ZM103.736 92.7133C103.71 92.4383 103.72 92.5993 108.957 91.8393C109.583 91.7473 109.801 91.6363 109.815 91.9213C109.847 92.6053 109.909 93.8163 110.052 94.4833C110.126 94.8343 110.076 94.6323 106.748 95.0203C103.584 95.3873 103.821 95.4453 103.821 95.2413C103.813 93.2783 103.943 94.8733 103.735 92.7143L103.736 92.7133ZM128.966 88.5993C102.435 92.0803 90.5351 93.7423 90.4211 93.2493C90.2991 92.7273 90.5571 93.2393 89.0591 73.8183C88.4821 66.3593 88.1611 64.2093 88.0721 62.7703C88.0521 62.4433 88.0741 62.5483 88.9711 62.5153C97.4181 62.1963 128.164 59.6923 128.174 60.0293C128.174 60.0493 128.422 63.5923 128.363 63.5963C129.013 88.3363 129.542 88.5333 128.966 88.5993V88.5993Z"></path><path id="vector_3" fill="#000000" d="M77.8211 65.2769C77.5481 63.5309 77.7631 63.3039 76.2451 63.4749C62.8831 64.9929 45.5861 67.2909 37.2811 69.0829C36.8941 69.1659 36.8951 69.4349 36.7791 69.9319C37.0211 71.7129 38.0851 93.6349 39.6531 100.664C39.8281 101.446 40.2361 101.366 45.9311 100.339C52.9101 99.0819 52.6581 98.9539 52.6521 99.3049C52.6361 100.341 52.7461 100.502 52.4591 100.606C51.6451 100.898 46.0951 101.962 45.9811 102.392C45.8611 102.843 45.7581 103.041 46.2561 103.27C54.4321 107.025 53.3871 106.785 54.6871 106.532C55.3611 106.4 62.7471 104.625 68.7081 102.837C68.8061 102.807 68.8721 102.771 68.8941 102.695C68.9081 102.651 68.9041 102.155 68.8841 102.053C68.8581 101.926 68.7941 101.871 68.6311 101.81C63.496 99.8429 61.7191 99.0489 60.3061 99.2099C59.9851 99.2459 60.0331 99.2659 59.9951 97.7459C59.9871 97.4289 59.9971 97.6659 74.8821 94.5299C79.2611 93.6069 79.7031 93.6449 79.7401 93.0179C79.8951 90.3909 79.3691 75.1549 77.8231 65.2779L77.8211 65.2769ZM60.2391 99.716C60.7681 99.516 61.2501 99.5759 61.7911 99.7819C62.8941 100.201 67.9751 101.833 68.3881 102.062C68.3681 102.074 53.9291 105.719 53.9091 105.721C52.7981 105.252 53.9591 105.603 48.5691 103.349C46.7571 102.593 46.8711 102.641 46.7121 102.559C46.9751 102.469 46.7141 102.551 49.4471 101.973C52.8481 101.251 52.7291 101.141 52.7411 101.558C52.7871 103.006 52.7311 103.144 58.4071 101.6C58.8621 101.474 59.2951 101.271 59.7401 101.107C60.1651 100.952 59.7441 99.9039 60.2411 99.7169L60.2391 99.716ZM53.5381 98.9159C55.4411 98.5549 57.6741 98.0659 59.2781 97.7509C59.2921 97.9629 59.3201 98.1719 59.3201 98.3839C59.3321 100.7 59.6451 100.467 59.5161 100.686C59.4381 100.818 56.6451 101.401 56.6251 101.406C52.9901 102.398 53.3591 102.204 53.3571 101.977C53.3251 98.9049 53.2741 98.9659 53.5391 98.9159H53.5381ZM78.6711 93.2299C67.9401 95.0989 40.2241 100.679 40.1821 100.274C39.0331 88.9979 38.3191 82.0619 37.2911 69.7469C37.2611 69.3919 76.4481 63.9349 76.8041 63.8969C77.6221 63.8089 79.2391 90.2299 79.1921 92.2779C79.1701 93.2229 79.2801 93.1229 78.6711 93.2289V93.2299Z"></path><path id="vector_4" fill="#000000" d="M80.4171 106.211C79.7091 105.794 78.6711 105.102 78.1111 105.273C76.9761 105.618 52.7851 112.242 53.1861 114.079C53.5931 115.946 53.5691 116.393 55.1031 115.645C55.2851 115.557 55.3141 115.597 55.6921 115.882C61.0281 119.906 60.7631 119.846 61.1881 119.75C61.4271 119.919 61.5681 119.626 61.7781 119.561C61.7981 119.555 87.3601 110.827 87.5371 110.693C87.8421 110.464 87.5411 110.392 80.4171 106.211ZM81.4521 112.198C60.9321 118.863 61.1351 119.33 61.0741 119.322C60.8631 119.298 60.9421 119.153 56.8131 115.921C54.1781 113.858 53.6451 113.816 53.9741 113.689C63.9431 109.793 77.5131 106.09 78.1511 105.795C78.5101 105.629 78.2991 105.689 82.8731 108.351C84.1511 109.093 86.4931 110.41 86.7271 110.548C86.3941 110.734 83.6721 111.48 81.4531 112.199L81.4521 112.198Z"></path><path id="vector_5" fill="#000000" d="M100.628 104.754C100.61 103.798 100.351 103.79 112.284 101.405C114.911 100.88 115.125 100.804 122.865 99.5121C127.597 98.7221 127.452 98.6141 128.032 99.2861C128.585 99.9261 133.021 105.333 133.145 106.169C133.163 106.291 133.137 106.374 132.975 106.408C132.448 106.521 131.93 106.683 131.401 106.791C105.501 112.106 105.698 112.373 105.441 111.922C104.719 110.657 103.809 109.522 102.997 108.317C101.826 106.579 102.069 106.645 101.491 106.761C100.962 106.867 100.917 106.668 100.628 104.753V104.754ZM132.714 105.952C132.528 105.687 128.115 99.9811 127.529 99.4201C127.02 98.9331 105.56 103.558 101.367 104.314C100.926 104.393 101.628 104.615 105.718 111.404C106.057 111.967 105.682 111.163 126.222 107.26C132.007 106.161 132.462 106.101 132.714 105.951V105.952Z"></path><path id="vector_6" fill="#000000" d="M151.29 97.9414C151.297 97.6894 151.939 97.6014 153.044 97.4324C158.553 96.5934 173.999 94.3664 175.247 94.1404C175.73 94.0534 175.853 94.1064 179.839 99.0004C180.549 99.8724 179.598 99.7984 175.889 100.622C156.454 104.939 155.75 105.562 155.389 104.977C152.802 100.786 152.64 100.263 152.476 99.9744C152.356 99.7634 152.259 99.8324 151.995 99.8324C151.709 99.8324 151.606 99.8624 151.529 99.6134C151.458 99.3824 151.312 98.3534 151.289 97.9414H151.29ZM175.297 94.5264C175.215 94.5324 152.738 97.8514 152.002 98.0254C151.84 98.0634 151.738 97.7604 154.28 102.258C155.738 104.838 155.573 104.818 155.918 104.72C161.331 103.177 178.119 99.7954 179.528 99.4334C179.714 99.3854 179.584 99.3114 179.019 98.6634C175.365 94.4654 175.655 94.7634 175.296 94.5254L175.297 94.5264Z"></path><path id="vector_7" fill="#000000" d="M157.215 64.0262C158.341 64.9792 152.54 65.6202 152.413 64.4812C152.354 63.9522 153.055 63.7962 153.764 63.6812C155.268 63.4372 156.791 63.6672 157.215 64.0262Z"></path><path id="vector_8" fill="#000000" d="M152.971 68.7905C152.56 68.6315 152.405 68.1725 152.925 67.8525C153.194 67.6875 153.436 67.6945 154.475 67.5975C155.149 67.5345 156.155 67.4135 156.801 67.8065C157.011 67.9345 157.035 68.0305 156.859 68.1875C156.69 68.3395 156.5 68.4885 156.29 68.5705C155.639 68.8265 153.622 69.0425 152.97 68.7895L152.971 68.7905Z"></path><path id="vector_9" fill="#000000" d="M152.786 77.6784C153.77 77.0904 157.175 77.1034 157.065 77.5344C156.935 78.0474 155.633 78.3104 154.557 78.4544C152.416 78.7414 152.526 77.8334 152.785 77.6784H152.786Z"></path><path id="vector_10" fill="#000000" d="M157.069 74.4886C157.067 75.1926 153.681 75.5086 153.035 75.1426C152.572 74.8796 152.77 74.2896 153.574 74.1886C154.097 74.1236 157.071 73.7316 157.069 74.4876V74.4886Z"></path><path id="vector_11" fill="#000000" d="M153.181 72.1682C152.373 71.8842 152.523 71.2812 153.091 71.0892C154.957 70.4602 157.127 71.0292 156.253 71.6482C155.337 72.2962 153.296 72.2092 153.181 72.1692V72.1682Z"></path><path id="vector_12" fill="#000000" d="M151.142 72.3032C150.029 72.3172 150.081 70.8092 151.088 70.7892C152.121 70.7692 152.201 72.3572 151.142 72.3032Z"></path><path id="vector_13" fill="#000000" d="M152.014 78.119C152.012 78.588 151.695 78.932 151.262 78.935C150.913 78.938 150.511 78.536 150.522 78.197C150.553 77.203 152.019 77.03 152.014 78.119V78.119Z"></path><path id="vector_14" fill="#000000" d="M151.908 74.8716C151.894 75.8946 150.424 75.7796 150.484 74.8196C150.556 73.6726 151.92 74.0116 151.908 74.8716Z"></path><path id="vector_15" fill="#000000" d="M150.41 68.3656C150.396 67.9686 150.737 67.5956 151.104 67.6036C151.463 67.6116 151.796 67.9566 151.782 68.3316C151.747 69.2996 150.436 69.1276 150.409 68.3656H150.41Z"></path><path id="vector_16" fill="#000000" d="M150.944 65.5225C150.553 65.5225 150.246 65.2555 150.234 64.9085C150.222 64.5615 150.585 64.1455 150.89 64.1565C151.734 64.1885 151.949 65.5255 150.944 65.5235V65.5225Z"></path><path id="vector_17" fill="#000000" d="M146.528 65.2549C147.895 66.0849 141.806 66.3999 140.649 66.1849C140.102 66.0829 140.093 65.5809 140.459 65.3989C141.006 65.1279 141.532 65.0979 142.979 65.0299C143.324 65.0139 145.726 64.7689 146.528 65.2549V65.2549Z"></path><path id="vector_18" fill="#000000" d="M140.997 73.207C140.644 72.932 140.768 72.401 141.444 72.303C142.218 72.191 146.283 71.93 147.044 72.469C148.254 73.326 141.524 73.618 140.997 73.207Z"></path><path id="vector_19" fill="#000000" d="M146.871 78.1773C146.264 78.6553 142.648 78.6503 141.475 78.4663C141.307 78.4403 140.756 78.1163 141.329 77.7483C141.786 77.4553 148.195 77.1343 146.871 78.1773V78.1773Z"></path><path id="vector_20" fill="#000000" d="M140.944 70.9795C140.537 70.8125 140.512 70.3265 141.247 70.0935C141.391 70.0475 146.171 69.5565 146.258 70.3185C146.338 71.0125 141.59 71.2445 140.943 70.9785L140.944 70.9795Z"></path><path id="vector_21" fill="#000000" d="M140.999 75.803C140.395 75.328 141.013 74.895 141.657 74.883C144.809 74.828 144.53 74.873 145.334 75.134C145.701 75.254 145.735 75.569 145.306 75.727C143.967 76.219 141.442 76.152 140.999 75.803Z"></path><path id="vector_22" fill="#000000" d="M140.507 68.3776C139.93 68.1246 140.074 67.5376 140.561 67.4096C141.441 67.1786 143.799 67.0806 144.673 67.6326C145.804 68.3476 141.379 68.7596 140.508 68.3766L140.507 68.3776Z"></path><path id="vector_23" fill="#000000" d="M173.041 69.0997C172.648 69.0997 172.125 69.1697 172.05 68.7767C171.958 68.2997 172.668 68.1747 173.197 68.1027C174.911 67.8687 175.818 67.9967 176.154 68.1587C176.419 68.2867 176.326 68.4337 176.086 68.5677C175.206 69.0587 173.044 69.1207 173.042 69.1007L173.041 69.0997Z"></path><path id="vector_24" fill="#000000" d="M175.508 63.019C176.298 63.555 172.38 64.075 171.981 63.923C171.438 63.716 171.544 63.214 171.921 63.073C172.798 62.745 175.007 62.68 175.508 63.019Z"></path><path id="vector_25" fill="#000000" d="M176.099 72.4692C177.087 73.2242 173.42 73.4452 172.807 73.2512C172.342 73.1042 172.5 72.4872 173.162 72.3972C175.259 72.1132 175.884 72.3052 176.099 72.4692Z"></path><path id="vector_26" fill="#000000" d="M175.828 64.9009C175.772 65.2499 174.637 65.4349 174.286 65.4859C171.03 65.9509 171.679 64.9869 172.261 64.8179C172.74 64.6779 175.908 64.4029 175.828 64.9019V64.9009Z"></path><path id="vector_27" fill="#000000" d="M173.675 66.432C176.027 66.805 171.603 68 171.951 66.723C172.097 66.186 173.459 66.398 173.675 66.432Z"></path><path id="vector_28" fill="#000000" d="M172.965 70.9013C172.582 70.9133 172.332 70.7513 172.337 70.4063C172.348 69.5203 175.387 69.9563 174.46 70.5123C174.141 70.7033 173.74 70.8773 172.966 70.9013H172.965Z"></path><path id="vector_29" fill="#000000" d="M168.087 63.3821C168.574 63.3001 168.586 63.4741 168.658 64.8781C168.915 69.9031 168.934 73.7481 169.065 75.3541C169.24 77.4951 169.494 77.8131 169.009 77.8721C165.513 78.2941 165.326 78.3001 163.24 78.3711C162.109 78.4091 162.683 77.4971 162.276 71.2651C162.184 69.8551 162.04 68.7391 161.869 64.1811C161.845 63.5371 162.112 63.6081 163.914 63.5051C167.006 63.3281 167.76 63.4391 168.087 63.3831V63.3821ZM168.324 77.3751C168.701 77.3811 168.663 77.3531 168.657 77.0581C168.617 75.1471 168.38 71.6101 168.276 70.5281C167.797 65.5251 168.154 63.9001 167.769 63.9071C165.064 63.9571 166.43 63.9721 164.705 64.1011C162.494 64.2661 162.347 64.1111 162.373 64.4221C162.807 69.7261 162.989 76.7671 163.155 77.3351C163.376 78.0931 163.197 77.2971 168.324 77.3751V77.3751Z"></path><path id="vector_30" fill="#000000" d="M174.79 59.8537C173.818 59.4307 173.993 59.3737 173.663 59.6577C173.135 60.1117 172.961 60.1777 172.737 60.0007C172.474 59.7927 172.726 59.4387 172.948 59.1927C173.152 58.9677 173.421 58.9277 173.253 58.7937C172.989 58.5827 172.609 58.3527 172.792 58.1357C173.019 57.8667 173.43 58.0717 173.714 58.2817C173.959 58.4637 173.977 58.3117 174.414 58.0467C174.596 57.9367 175.324 57.7147 174.9 58.4197C174.7 58.7517 174.598 58.6957 174.576 58.9147C174.551 59.1637 175.44 59.7507 174.789 59.8547L174.79 59.8537Z"></path><path id="vector_31" fill="#000000" d="M108.031 68.5813C109.21 68.4553 110.371 69.8683 109.92 71.0973C109.864 71.2493 109.858 71.3393 110.062 71.4443C110.667 71.7563 111.05 72.1023 114.144 74.6783C114.405 74.8963 114.369 74.2223 115.592 74.0283C116.232 73.9263 116.346 74.2743 116.532 73.9103C117.535 71.9423 119.191 69.2873 120.67 67.3763C120.84 67.1573 120.361 67.0813 120.014 66.4603C119.011 64.6673 121.015 62.5803 122.951 63.7453C124.688 64.7913 123.849 67.5603 121.912 67.5103C120.861 67.4823 121.186 67.3173 120.823 68.2203C120.321 69.4673 118.379 72.7313 117.703 73.8603C117.027 74.9893 117.153 74.0713 117.579 75.2413C118.522 77.8283 114.762 79.1413 113.9 76.6553C113.529 75.5843 114.228 75.2863 113.776 75.0573C112.446 74.3833 110.705 72.9613 109.563 72.0013C109.309 71.7883 108.843 72.8343 107.422 72.4043C106.999 72.2763 107.213 72.4183 106.189 74.1523C104.839 76.4383 104.699 76.2793 104.86 76.6463C105.593 78.3133 104.116 79.7023 102.703 79.3053C101.083 78.8503 100.892 76.8603 102.075 75.9263C102.496 75.5933 101.929 75.9603 98.9911 71.4633C98.2591 70.3423 98.3431 70.1153 98.0631 70.3123C97.3161 70.8383 96.9421 70.3603 96.8461 70.8693C96.6411 71.9563 95.4341 75.3083 95.4101 75.3723C94.6771 77.3313 94.5811 77.2173 94.7841 77.4033C96.3461 78.8343 94.9321 81.0983 93.1341 80.6233C91.1471 80.0983 91.2951 77.3983 93.0541 76.9863C93.2831 76.9323 93.5291 76.8093 93.7801 76.9363C94.0831 77.0903 93.8081 76.5953 95.1781 73.1913C96.2911 70.4283 96.5411 70.5813 96.3251 70.4383C96.2011 70.3563 96.0671 70.2853 95.9561 70.1913C95.5191 69.8233 95.2181 69.0763 95.4891 68.2963C96.0131 66.7903 97.8111 66.7723 98.5431 67.9173C99.2491 69.0203 98.4871 69.4203 98.8321 69.7403C99.3961 70.2633 99.6601 70.6433 102.04 74.3923C102.714 75.4543 102.656 75.5933 103.031 75.5693C104.064 75.5023 103.949 76.0063 104.21 75.5933C106.55 71.8853 106.915 72.2203 106.6 71.9143C105.46 70.8083 106.269 68.4113 108.03 68.5823L108.031 68.5813ZM121.804 64.1083C121.174 64.1363 120.519 64.8223 120.543 65.4293C120.569 66.0793 121.261 66.7513 121.91 66.6983C123.747 66.5463 123.34 64.0413 121.804 64.1093V64.1083ZM108.031 71.6073C109.461 71.6093 109.425 69.5243 108.083 69.5023C106.393 69.4753 106.776 71.6823 108.031 71.6073ZM103.169 76.4853C101.641 76.4953 101.89 78.5483 103.175 78.5623C104.46 78.5763 104.695 76.4753 103.169 76.4853ZM93.5031 79.7773C94.8041 79.8313 95.0411 77.9153 93.5911 77.7903C93.1061 77.7483 92.5701 78.2593 92.5721 78.7503C92.5741 79.3373 93.0851 79.8233 93.5041 79.7773H93.5031ZM115.631 74.9773C115.19 74.9773 114.703 75.4863 114.725 75.9153C114.751 76.4263 115.252 76.9473 115.734 76.9623C116.213 76.9773 116.809 76.4253 116.773 75.9653C116.73 75.4083 116.326 74.9773 115.63 74.9773H115.631ZM96.8781 67.8813C96.3611 67.9953 96.0201 68.5013 96.1441 68.9763C96.2681 69.4513 96.6771 69.9323 97.3451 69.6963C97.7701 69.5463 98.1311 69.0403 98.0631 68.5833C97.9951 68.1223 97.5041 67.7433 96.8781 67.8813Z"></path><path id="vector_32" fill="#000000" d="M94.0401 88.6839C94.0001 88.0119 94.6151 88.1129 105.525 86.6429C108.246 86.2759 109.489 85.9469 109.581 86.6869C109.669 87.3909 108.524 87.4029 103.736 88.0539C97.6171 88.8859 94.0941 89.5719 94.0401 88.6839Z"></path><path id="vector_33" fill="#000000" d="M93.4811 84.2657C93.1081 84.1097 93.0511 83.8057 93.3431 83.5257C93.8271 83.0637 98.5441 82.4277 98.9691 82.3667C104.273 81.6007 104.571 81.4287 105.032 81.6307C105.557 81.8597 105.599 82.5627 104.36 82.7637C93.7211 84.4927 93.9541 84.4637 93.4811 84.2657V84.2657Z"></path><path id="vector_34" fill="#000000" d="M94.116 86.5717C93.749 86.4317 93.6871 86.0967 93.9981 85.8577C94.6461 85.3587 100.974 84.3777 101.744 84.2877C102.342 84.2177 102.93 84.5937 102.486 85.0717C102.143 85.4417 101.989 85.3837 97.714 86.1607C95.673 86.5317 94.674 86.7847 94.115 86.5717H94.116Z"></path><path id="vector_35" fill="#000000" d="M46.7691 72.2989C44.5871 72.2509 42.221 73.8209 41.552 76.1409C40.174 80.9229 44.7561 84.2659 48.3111 82.9859C54.2821 80.8339 52.8241 72.4309 46.7691 72.2989ZM44.571 77.6019C44.499 76.5589 45.561 75.4319 46.778 75.4569C48.096 75.4849 49.1041 76.7039 49.0661 77.8009C49.0241 79.0079 47.975 79.9719 46.778 79.9479C45.393 79.9199 44.494 78.6429 44.571 77.6019ZM51.44 78.7949C50.229 83.4679 44.325 83.6929 42.403 79.8309C42.279 79.5799 42.297 79.5469 42.578 79.4769C44.092 79.1019 44.011 79.0559 44.222 79.3829C45.082 80.7239 47.0511 81.2029 48.5391 80.1429C49.8101 79.2369 49.2461 78.5789 49.9561 78.5729C51.1411 78.5629 51.586 78.2359 51.44 78.7939V78.7949ZM50.514 77.9689C49.718 78.0449 49.754 78.1439 49.764 77.7399C49.798 76.2359 48.882 75.0409 47.404 74.7649C46.648 74.6229 46.7831 74.7409 46.7691 73.9809C46.7511 73.0359 46.731 73.0999 47.031 73.0969C49.942 73.5159 51.1241 75.2279 51.5331 77.7219C51.5651 77.9129 51.1061 77.9129 50.5131 77.9699L50.514 77.9689Z"></path><path id="vector_36" fill="#000000" d="M64.323 86.8073C64.339 87.1463 64.385 87.3823 64.046 87.4433C62.77 87.6743 61.389 88.0893 61.574 87.2493C61.61 87.0853 60.439 75.3233 60.435 75.3033C60.389 74.9503 60.531 75.0143 62.514 74.6793C63.055 74.5873 63.047 74.5093 63.162 74.9423C63.24 75.2353 64.357 86.8043 64.323 86.8063V86.8073Z"></path><path id="vector_37" fill="#000000" d="M72.602 85.2674C72.602 85.8674 72.832 85.8474 70.19 86.2724C69.458 86.3904 69.718 86.3504 68.907 78.5184C68.583 75.3904 68.025 75.8504 70.379 75.4804C71.271 75.3404 71.388 75.2534 71.482 75.5584C71.745 76.4144 72.599 85.2484 72.601 85.2684L72.602 85.2674Z"></path><path id="vector_38" fill="#000000" d="M68.5181 85.8157C68.5181 86.8167 68.4241 86.6827 66.2001 87.0607C65.2501 87.2217 65.7341 85.6187 64.9151 79.0347C64.8751 78.7117 65.0571 78.7317 66.0401 78.4617C67.7721 77.9867 67.5551 77.7077 67.9171 80.8097C68.5011 85.8167 68.3781 85.0007 68.5171 85.8147L68.5181 85.8157Z"></path><path id="vector_39" fill="#000000" d="M73.887 78.6675C76.08 78.1895 76.067 78.1155 76.213 78.5975C76.356 79.0705 76.375 78.9925 76.684 82.6735C76.848 84.6305 77.025 84.9635 76.463 85.0595C73.522 85.5615 74.047 85.9675 73.8 83.3035C73.368 78.6575 73.11 78.8365 73.888 78.6675H73.887Z"></path><path id="vector_40" fill="#000000" d="M59.505 95.6428C59.552 96.0098 58.985 96.0608 58.946 95.7028C58.944 95.6828 56.697 71.6138 56.637 68.2348C56.625 67.5408 56.978 67.9538 57.009 68.1048C57.638 71.1638 59.21 93.3568 59.504 95.6428H59.505Z"></path><path id="vector_41" fill="#000000" d="M62.4761 90.3407C61.4331 90.3407 61.7621 89.5287 62.8951 89.2817C65.4561 88.7227 69.9471 88.1087 71.6151 87.8677C75.1761 87.3527 75.4041 87.0957 75.6391 87.6327C75.9231 88.2827 74.4981 88.3617 68.8901 89.2627C65.0441 89.8807 62.7731 90.2977 62.4761 90.3417V90.3407Z"></path><path id="vector_42" fill="#000000" d="M42.867 86.8398C42.574 86.8398 42.143 86.9158 42.073 86.5268C42.001 86.1298 42.592 85.9528 42.989 85.8768C43.009 85.8728 48.792 84.8528 52.926 84.5538C53.289 84.5278 53.267 84.9988 53.008 85.0648C47.299 86.5028 42.87 86.8798 42.868 86.8408L42.867 86.8398Z"></path><path id="vector_43" fill="#000000" d="M43.362 91.9282C41.527 91.3872 43.763 91.0362 45.473 90.7352C53.85 89.2612 55.761 90.0242 52.455 90.6372C50.199 91.0562 46.199 91.7682 43.362 91.9282V91.9282Z"></path><path id="vector_44" fill="#000000" d="M43.687 95.5818C43.699 94.8818 45.159 94.7408 52.369 93.9538C52.608 93.9278 52.816 93.9218 52.85 94.1548C52.901 94.5078 52.744 94.5418 51.912 94.7178C50.813 94.9508 43.669 96.6428 43.687 95.5818Z"></path><path id="vector_45" fill="#000000" d="M62.865 92.5442C59.486 91.7062 69.472 90.3762 69.889 90.4892C70.36 90.6172 70.322 91.2592 69.927 91.3752C69.662 91.4532 63.747 92.4942 62.865 92.5442V92.5442Z"></path><path id="vector_46" fill="#000000" d="M43.547 93.7474C42.013 92.8144 49.963 91.9474 51.76 91.9424C52.143 91.9414 52.131 92.3874 51.888 92.4494C51.028 92.6684 51.421 92.7434 47.024 93.5164C46.368 93.6314 44.01 94.0294 43.547 93.7474V93.7474Z"></path><path id="vector_47" fill="#000000" d="M42.9811 88.73C42.7501 88.666 42.6861 88.411 42.8871 88.279C43.3681 87.964 43.4561 87.946 46.3361 87.545C47.8261 87.338 49.6161 87.034 49.7811 87.505C49.8531 87.71 49.8491 87.787 49.6571 87.836C48.3411 88.174 44.0231 89.017 42.9801 88.73H42.9811Z"></path><path id="vector_48" fill="#000000" d="M70.3921 67.2985C70.1701 67.1915 70.1471 66.9795 70.3441 66.8235C70.6891 66.5515 71.7471 66.3825 72.2251 66.3065C74.6911 65.9145 74.6131 65.9875 75.4511 66.1345C76.6381 66.3435 71.2291 67.7035 70.3921 67.2975V67.2985Z"></path><path id="vector_49" fill="#000000" d="M75.1881 67.5558C76.6191 67.9098 72.2591 69.0318 71.9301 68.4378C71.5191 67.6958 74.3561 67.3498 75.1881 67.5558Z"></path><path id="vector_50" fill="#000000" d="M72.937 69.7524C72.418 69.7984 72.135 69.3454 72.763 69.0784C73.284 68.8574 74.774 68.5194 75.263 68.6974C76.336 69.0884 74.098 69.6494 72.937 69.7524Z"></path><path id="vector_51" fill="#000000" d="M78.4161 106.836C78.3841 106.846 55.9451 113.507 56.7121 114.173C57.5881 114.933 61.2531 117.387 61.7871 117.194C79.8271 110.671 83.6511 110.642 83.8661 109.77C83.3281 109.403 78.9061 106.687 78.4161 106.836ZM78.2461 107.163C78.5451 107.059 78.4571 107.069 80.2891 108.102C80.5981 108.275 80.2011 108.308 77.1471 109.149C76.8001 109.011 75.4181 108.199 75.3321 108.144C75.5671 108.058 77.4411 107.444 78.2471 107.163H78.2461ZM74.6971 108.348C75.0121 108.236 74.9411 108.266 76.4701 109.184C76.7511 109.353 76.5761 109.343 73.4401 110.311C73.3601 110.283 73.2711 110.273 73.2071 110.229C71.3261 108.972 71.3881 109.513 74.6971 108.348V108.348ZM71.3121 109.477C71.5471 109.391 71.4931 109.405 72.8981 110.359C72.9261 110.377 72.9441 110.407 72.9661 110.431C72.7261 110.567 70.5281 111.221 70.1871 111.387C69.9521 111.26 70.1691 111.411 68.7451 110.325C70.9101 109.603 70.7821 109.669 71.3131 109.477H71.3121ZM68.4231 110.562C69.8151 111.52 69.7541 111.527 69.5541 111.593C68.9311 111.797 67.7531 112.205 67.1341 112.423C66.7431 112.225 65.7761 111.473 65.6701 111.352C65.7761 111.292 68.1981 110.406 68.4231 110.562ZM65.3421 111.565C65.4921 111.676 66.4291 112.395 66.6171 112.592C66.3531 112.77 65.5001 113.005 64.4621 113.43C64.1771 113.546 64.2191 113.496 62.8481 112.43C62.8121 112.402 62.7861 112.36 62.7541 112.326C62.8581 112.276 65.1321 111.407 65.3411 111.564L65.3421 111.565ZM60.0351 113.183C62.2511 112.461 62.2181 112.377 62.4631 112.579C63.7591 113.648 63.9131 113.644 63.6841 113.738C61.6151 114.586 61.7151 114.594 61.3961 114.357C59.8721 113.224 59.8601 113.242 60.0351 113.184V113.183ZM57.2521 114.117C57.2921 114.087 57.3261 114.041 57.3701 114.028C59.4171 113.36 59.4491 113.32 59.6481 113.465C60.9311 114.401 61.3001 114.682 61.1501 114.75C60.9591 114.838 59.6221 115.457 59.4121 115.488C59.1931 115.405 57.3881 114.289 57.2521 114.117ZM63.2171 116.27C61.6971 116.884 61.7551 116.89 61.5911 116.796C59.7581 115.753 59.6121 115.727 59.8511 115.631C61.5551 114.947 61.5771 114.931 61.7211 115.035C63.4641 116.284 63.3271 116.226 63.2171 116.27V116.27ZM63.8161 116.033C63.5851 116.131 63.5701 116.003 62.0581 114.838C62.1821 114.773 62.3021 114.692 62.4331 114.641C64.2061 113.945 64.1621 113.927 64.3561 114.077C64.9111 114.508 65.3761 114.855 65.8381 115.212C65.5371 115.368 64.7831 115.627 63.8161 116.034V116.033ZM68.6001 114.263C66.2301 115.103 66.2321 115.206 65.9291 114.939C64.6761 113.83 64.5151 113.854 64.7601 113.758C66.9681 112.9 66.9851 112.856 67.1281 112.962C68.7441 114.156 68.7781 114.199 68.6001 114.263V114.263ZM71.8661 113.183C68.9931 114.113 69.1051 114.186 68.8161 113.931C67.4261 112.698 67.3441 112.754 67.5531 112.682C67.7841 112.602 69.7931 111.902 70.0471 111.784C70.2751 111.866 71.8401 112.943 71.9781 113.123C71.9421 113.143 71.9061 113.171 71.8661 113.183V113.183ZM75.2851 112.112C75.0841 112.236 73.1291 112.788 72.4001 112.996C72.1611 113.064 72.3131 113.122 70.6491 111.771C70.6051 111.737 70.5851 111.671 70.5551 111.621C71.6661 111.32 73.2481 110.618 73.4681 110.773C75.3051 112.076 75.2221 111.936 75.2851 112.111V112.112ZM75.6681 111.998C75.6301 111.982 75.5461 111.968 75.4841 111.922C73.8201 110.683 73.6141 110.613 73.9581 110.5C76.6051 109.63 76.3521 109.79 76.6181 109.658C77.1201 109.41 77.2581 109.61 79.2131 110.761C79.2971 110.809 79.3731 110.871 79.4521 110.927C79.1651 111.039 76.1171 111.95 75.6681 111.998ZM79.9311 110.817C79.5101 110.657 77.7301 109.54 77.6051 109.384C77.8581 109.218 80.6931 108.333 80.7131 108.333C80.7341 108.335 83.2501 109.644 83.4621 109.849C83.2001 110.037 83.4721 109.933 79.9311 110.817Z"></path><path id="vector_52" fill="#000000" d="M127.549 103.956C127.444 103.82 127.348 103.831 128.836 103.515C129.129 103.451 129.104 103.605 129.816 104.337C130.057 104.587 130.131 104.483 130.237 104.455C130.165 104.226 128.563 102.063 127.344 100.659C126.923 100.174 127.123 100.414 118 101.912C114.138 102.546 107.261 103.839 103.554 105.1C103.401 105.152 103.347 105.337 103.441 105.477C106.24 109.655 106.481 110.06 106.751 109.908C106.883 109.834 106.721 109.665 106.637 109.533C103.882 105.176 103.732 105.418 104.155 105.314C111.569 103.515 111.108 103.543 111.686 104.376C111.892 104.671 111.791 104.516 109.968 104.98C109.415 105.122 109.415 104.438 108.871 104.335C108.857 104.413 108.815 104.501 108.839 104.563C108.99 104.934 109.27 105.138 108.964 105.201C107.187 105.572 107.3 105.646 107.161 105.441C107.097 105.347 106.678 104.846 106.598 104.926C106.558 104.964 106.511 105.04 106.524 105.082C106.761 105.854 107.075 105.585 106.041 105.906C105.693 106.012 105.753 106.024 105.66 106.16C105.976 106.247 106.079 106.189 106.381 106.121C107.193 105.941 106.98 106.095 107.735 107.176C107.863 107.358 107.623 107.364 107.147 107.607C107.121 107.621 107.079 107.804 107.201 107.786C107.778 107.701 107.995 107.589 108.139 107.796C108.937 108.953 108.933 108.951 108.759 108.991C108.376 109.079 107.999 109.189 107.616 109.281C107.432 109.325 107.199 109.293 107.131 109.52C106.949 110.131 109.47 109.131 118.761 107.241C122.012 106.58 131.732 104.747 129.842 104.722C127.956 104.696 128.784 105.543 127.55 103.956H127.549ZM127.884 102.011C128.919 103.257 128.885 103.286 128.748 103.308C127.333 103.527 127.244 103.587 127.084 103.386C126.298 102.395 126.035 102.209 126.276 102.159C127.664 101.876 127.774 101.879 127.884 102.011V102.011ZM115.437 104.351C116.475 104.131 117.232 103.958 117.739 103.836C118.016 103.77 117.972 103.82 118.778 104.913C118.537 105.055 116.666 105.36 116.34 105.418C116.009 105.209 116.256 105.462 115.436 104.351H115.437ZM115.72 105.49C115.569 105.597 115.73 105.584 113.605 105.992C113.37 106.038 113.276 105.825 112.629 104.961C115.033 104.377 114.96 104.404 115.061 104.54C115.749 105.468 115.632 105.294 115.719 105.49H115.72ZM118.513 103.852C118.401 103.705 118.609 103.695 119.145 103.579C121.017 103.174 120.973 103.136 121.124 103.324C121.878 104.254 122.006 104.359 121.75 104.425C121.048 104.605 120.156 104.744 119.442 104.862C119.275 104.89 119.214 104.794 118.512 103.852H118.513ZM121.545 103.264C121.434 103.115 121.502 103.113 122.323 102.939C123.831 102.618 123.524 102.514 124.396 103.757C124.518 103.931 124.49 103.977 124.296 104.01C121.962 104.421 122.544 104.605 121.545 103.264ZM124.128 102.74C124.024 102.598 124.148 102.602 124.988 102.417C125.052 102.403 125.132 102.427 125.184 102.397C125.501 102.221 125.693 102.353 125.88 102.623C126.777 103.912 127.194 103.427 125.134 103.84C124.89 103.89 124.976 103.908 124.128 102.741V102.74ZM126.558 100.737C126.863 100.681 126.859 100.661 127.479 101.489C127.683 101.758 127.539 101.7 126.126 101.81C125.807 101.908 125.741 101.758 125.106 101.078C125.475 100.964 125.399 100.953 126.557 100.737H126.558ZM124.619 101.116C124.81 101.276 124.651 101.088 125.185 101.788C125.378 102.041 124.872 102.033 123.894 102.207C123.611 102.257 123.567 101.976 123.168 101.597C123.068 101.503 122.806 101.534 122.904 101.801C122.931 101.874 123.014 101.971 123.237 102.266C122.267 102.536 122.349 102.45 121.276 102.675C121.045 102.725 120.971 102.601 120.498 101.951C121.416 101.7 124.516 101.125 124.618 101.115L124.619 101.116ZM118.191 102.323C119.865 101.97 120.059 101.904 120.244 102.225C120.641 102.912 121.419 102.67 118.291 103.239C118.056 103.395 117.898 103.057 117.505 102.509C117.734 102.447 117.96 102.371 118.191 102.323V102.323ZM116.934 102.588C117.05 102.55 117.046 102.57 117.475 103.183C117.672 103.466 117.694 103.316 115.274 103.875C115.085 103.919 115.065 103.865 114.544 103.215C114.375 103.002 114.528 103.044 116.934 102.589V102.588ZM111.662 103.819C111.504 103.623 111.524 103.659 111.736 103.617C114.048 103.156 114.17 103.106 114.174 103.182C114.202 103.661 114.844 103.93 114.461 104.018C112.677 104.423 112.955 104.287 112.488 104.435C112.181 104.533 112.129 104.395 111.662 103.819V103.819ZM110.15 105.419C112.011 105.056 112.143 104.994 112.235 105.104C113.07 106.105 113.029 106.085 112.883 106.12C110.671 106.646 110.757 106.668 110.605 106.449C109.97 105.533 109.928 105.464 110.15 105.42V105.419ZM108.219 107.097C107.551 106.101 107.429 105.956 107.627 105.918C109.546 105.545 109.438 105.517 109.636 105.791C110.169 106.527 110.358 106.712 110.029 106.796C108.347 107.221 108.317 107.243 108.219 107.097ZM109.338 108.819C109.105 108.677 109.25 108.865 108.54 107.584C111.205 106.947 110.431 107.049 111.469 108.244C110.771 108.492 109.617 108.757 109.338 108.819ZM114.054 107.695C111.702 108.244 111.708 108.325 111.55 108.005C111.225 107.348 110.854 107.069 111.099 107.017C113.275 106.559 113.379 106.54 113.531 106.704C114.235 107.468 114.365 107.623 114.054 107.695ZM114.832 107.52C114.517 107.606 114.469 107.458 113.896 106.654C113.652 106.311 114.315 106.436 116.084 106.002C116.305 106.157 116.116 105.976 116.948 107.077C115.274 107.452 115.298 107.394 114.831 107.52H114.832ZM119.957 106.497C117.246 107.039 117.353 107.076 117.21 106.87C116.52 105.883 116.488 105.914 117.063 105.807C119.124 105.422 119.166 105.27 119.393 105.608C119.83 106.256 120.199 106.45 119.957 106.498V106.497ZM120.498 106.399C120.329 106.309 120.446 106.439 119.74 105.441C119.694 105.375 119.688 105.325 119.784 105.299C119.847 105.281 119.904 105.237 119.968 105.225C122.326 104.77 122.188 104.728 122.386 104.96C123.483 106.249 123.722 105.69 120.498 106.398V106.399ZM123.546 105.822C123.295 105.678 123.459 105.892 122.768 104.888C122.636 104.697 122.513 104.75 124.711 104.349C124.866 104.321 124.92 104.377 125.616 105.316C125.734 105.476 125.349 105.502 123.545 105.821L123.546 105.822ZM126.022 105.385C125.866 105.26 125.99 105.409 125.655 104.876C125.53 104.675 125.324 104.519 125.296 104.26C127.231 103.865 126.752 103.657 127.821 104.914C127.977 105.098 127.554 105.12 126.022 105.385Z"></path><path id="vector_53" fill="#000000" d="M177.236 98.0807C174.624 95.1387 174.917 95.3817 174.19 95.5077C174.17 95.5107 164.435 97.0517 164.415 97.0557C154.139 98.8787 154.438 98.6257 154.179 99.0807C154.063 99.2827 155.486 101.128 155.634 101.308C156.302 102.12 156.57 102.697 157.074 102.521C159.163 102.409 157.487 102.048 173.146 99.4207C177.451 98.6987 177.768 98.6787 177.238 98.0817L177.236 98.0807ZM174.068 95.9327C174.245 95.9207 174.612 95.6937 174.989 96.2257C175.458 96.8877 176.054 97.0797 175.047 97.1357C174.686 96.9497 174.943 97.2337 174.009 96.0487C173.947 95.9707 173.983 95.9387 174.067 95.9327H174.068ZM172.172 96.2337C173.381 96.0227 173.453 95.9507 173.627 96.1677C174.491 97.2547 174.773 97.0887 173.024 97.3187C172.884 97.3367 172.789 97.3047 172.699 97.1727C172.25 96.5097 171.861 96.2887 172.172 96.2327V96.2337ZM169.746 96.6367C171.615 96.2877 171.593 96.2697 171.725 96.4657C171.835 96.6277 171.962 96.7807 172.056 96.9527C172.14 97.1037 172.403 97.1937 172.307 97.3797C172.257 97.4737 172.191 97.4637 170.208 97.7337C169.953 97.8077 169.801 97.5237 169.288 96.7777C169.44 96.7297 169.589 96.6687 169.745 96.6377L169.746 96.6367ZM168.681 96.8247C168.956 96.7197 169.401 97.6007 169.509 97.8047C169.435 97.8407 169.363 97.8917 169.285 97.9067C167.252 98.2577 167.256 98.2937 167.152 98.1087C167.048 97.9207 167.118 98.0787 166.516 97.1507C167.196 97.0177 166.588 97.1077 168.681 96.8257V96.8247ZM165.9 97.2357C166.151 97.1937 166.038 97.2237 166.682 98.1947C166.782 98.3467 166.844 98.2827 164.851 98.6297C164.589 98.4387 164.801 98.6737 164.053 97.6507C163.957 97.5187 163.889 97.5587 165.901 97.2357H165.9ZM163.446 97.6467C163.632 97.6187 163.672 97.6747 164.234 98.5657C164.401 98.8337 162.562 99.0127 162.373 99.0267C162.098 99.0927 161.655 98.2627 161.523 98.0177C161.716 97.9417 161.511 97.9477 163.446 97.6467V97.6467ZM160.809 98.1037C161.23 97.9917 161.268 98.2807 161.579 98.7717C161.866 99.2247 161.91 99.0947 160.095 99.4297C159.884 99.4677 159.766 99.3837 159.66 99.1967C159.532 98.9677 159.348 98.7697 159.207 98.5487C158.982 98.1977 159.791 98.3777 160.809 98.1047V98.1037ZM157.004 98.7297C158.6 98.4607 158.734 98.4267 158.806 98.5287C158.995 98.7957 159.175 99.0727 159.347 99.3527C159.431 99.4907 159.393 99.5817 159.255 99.6077C157.383 99.9667 157.392 100.021 157.25 99.7617C156.847 99.0237 156.478 98.8197 157.004 98.7297V98.7297ZM154.824 99.3667C154.578 99.0297 154.802 99.0737 156.065 98.9077C156.311 98.7637 156.4 99.1647 156.893 99.8707C157.046 100.091 156.917 100.087 155.738 100.318C155.507 100.364 155.481 100.268 154.824 99.3667V99.3667ZM156.745 102.102C155.682 100.524 155.747 100.652 155.983 100.618C157.545 100.393 157.01 100.1 158.147 101.807C156.959 102.203 156.868 102.287 156.745 102.102ZM160.452 101.306C158.615 101.747 158.309 101.857 158.291 101.737C158.219 101.258 157.752 100.751 157.694 100.512C157.638 100.279 157.716 100.342 159.652 100.013C159.696 100.043 159.811 100.081 159.871 100.162C160.623 101.182 160.669 101.253 160.452 101.305V101.306ZM161.052 101.137C160.857 101.177 160.95 101.215 160.226 100.085C160.101 99.8917 160.234 99.9297 161.892 99.5877C162.183 99.5897 162.187 99.6397 162.774 100.522C162.992 100.849 162.828 100.766 161.052 101.137V101.137ZM163.385 100.644C163.197 100.696 163.088 100.465 162.627 99.7097C162.436 99.3987 162.615 99.4447 164.275 99.1337C164.5 99.0917 164.672 99.1217 164.812 99.3587C164.978 99.6427 165.217 99.8797 165.42 100.139C165.584 100.35 165.362 100.312 163.385 100.643V100.644ZM165.876 100.207C165.85 100.185 165.751 100.131 165.693 100.048C164.993 99.0447 165.012 99.0167 165.286 98.9627C167.02 98.6157 166.97 98.6537 167.076 98.7837C167.313 99.0787 167.78 99.7307 167.902 99.9007C167.276 100.031 167.843 99.9487 165.877 100.208L165.876 100.207ZM170.758 99.5147C168.569 99.8257 168.352 99.8937 168.22 99.7057C167.404 98.5487 167.45 98.5507 167.617 98.5247C169.893 98.1837 169.818 98.1237 169.908 98.2387C170.836 99.4477 170.915 99.4907 170.758 99.5137V99.5147ZM172.829 99.2097C171.347 99.4487 171.219 99.5187 171.048 99.2417C170.447 98.2747 170.088 98.1027 170.557 98.0247C173.091 97.6037 172.342 97.3767 173.575 98.9067C173.713 99.0777 173.446 99.1107 172.829 99.2097V99.2097ZM174.124 98.9547C173.874 99.0047 173.946 99.0107 173.148 97.7837C172.941 97.4627 173.414 97.5437 174.049 97.5437C174.747 97.3027 175.099 97.9177 175.676 98.5997C175.842 98.7967 175.43 98.6867 174.124 98.9547V98.9547ZM176.163 98.6197C175.935 98.6407 175.897 98.5037 175.213 97.5747C175.099 97.4187 175.211 97.4427 175.79 97.2997C176.134 97.4627 175.878 97.2047 176.944 98.2947C177.168 98.5217 176.557 98.5837 176.162 98.6197H176.163Z"></path></g><g id="chair 1"><path id="vector_54" fill="#000000" d="M126.488 124.801C124.862 115.038 118.566 113.617 109.523 114.932C87.662 118.11 91.64 130.64 88.983 145.094C88.923 145.419 88.891 145.355 87.921 145.609C85.491 146.241 80.769 147.704 78.746 148.966C77.248 149.902 76.204 150.977 75.903 152.716C75.737 153.676 75.779 155.208 75.815 155.395C77.401 163.535 94.671 163.491 98.863 163.429C99.334 163.421 99.326 163.492 99.34 163.613C99.813 167.896 100.084 172.889 100.06 173.488C100.04 173.963 99.883 174.455 99.216 174.942C96.272 177.094 87.987 179.381 85.609 181.98C84.641 183.038 84.494 184.131 85.89 184.825C86.052 184.907 85.844 185.108 85.743 185.262C84.177 187.636 87.456 190.102 89.284 187.995C90.044 187.117 90.086 185.934 89.31 184.998C89.154 184.812 89.16 184.807 89.373 184.701C93.964 182.421 95.693 181.485 98.033 180.671C100.699 179.743 100.68 179.518 100.618 180.145C100.169 184.735 99.998 185.525 101.462 186.1C101.841 186.248 101.671 186.096 101.735 187.997C101.757 188.687 102.312 189.335 102.837 189.441C104.495 189.774 105.622 189.645 105.293 186.215C105.216 185.431 106.636 186.082 106.516 183.893C106.456 182.784 106.071 181.509 105.851 179.861C105.819 179.626 105.751 179.518 106.539 179.496C109.707 179.408 114.584 179.739 117.665 180.511C117.807 180.547 117.767 180.597 117.705 180.665C116.548 181.91 116.72 183.254 117.633 184.09C119.303 185.618 121.859 184.132 121.402 181.916C121.193 180.895 120.483 180.743 121.163 180.599C122.069 180.406 122.725 178.877 120.471 177.62C116.355 175.324 105.551 175.166 105.533 173.925C105.495 171.358 105.85 167.821 106.116 165.267C106.353 162.991 106.221 163.093 106.64 163.059C114.534 162.403 121.335 160.346 123.973 153.01C125.343 149.198 127.711 132.149 126.489 124.799L126.488 124.801ZM85.356 152.124C83.489 153.375 81.25 153.89 79.574 152.394C76.949 150.05 84.829 147.72 88.254 146.908C88.414 146.87 88.494 146.952 88.444 147.09C87.572 149.49 86.892 151.096 85.356 152.125V152.124ZM107.863 175.624C110.57 176.065 118.366 176.937 120.557 178.513C121.024 178.85 121.435 179.301 121.119 179.73C120.245 180.915 117.69 178.705 106.197 178.617C105.479 178.612 105.649 178.651 105.618 176.809C105.612 176.426 105.303 176.464 105.203 176.682C104.895 177.352 105.041 179.457 105.185 180.39C105.374 181.613 105.67 182.774 105.709 184.135C105.727 184.803 105.645 185.138 103.846 185.39C102.247 185.615 100.912 185.504 101.007 183.898C101.059 182.983 101.756 176.363 100.841 176.431C100.558 176.451 100.628 176.672 100.632 177.868C100.634 178.642 100.678 178.778 100.175 178.951C91.998 181.782 89.311 184.543 87.024 184.274C85.313 184.074 85.388 183.101 86.691 182.086C89.05 180.244 98.092 176.585 99.423 175.66C100.903 174.631 100.766 173.577 100.716 171.971C100.644 169.645 100.413 165.779 100.247 164.095C100.142 163.04 100.147 163.682 103.669 163.283C104.162 163.227 104.658 163.203 105.153 163.176C105.416 163.162 105.439 163.172 105.421 163.451C105.307 165.171 104.787 169.556 104.894 173.72C104.918 174.621 105.082 175.721 105.495 175.084C105.704 174.763 105.461 175.236 107.863 175.626V175.624Z"></path></g><g id="chair 2"><path id="vector_55" fill="#000000" d="M183.311 109.485C181.686 99.722 175.389 98.301 166.346 99.616C144.485 102.794 148.463 115.324 145.805 129.778C145.745 130.103 145.714 130.039 144.744 130.293C142.314 130.925 137.592 132.388 135.569 133.65C134.07 134.586 133.027 135.661 132.726 137.401C132.56 138.36 132.602 139.892 132.638 140.08C134.224 148.219 151.494 148.175 155.686 148.114C156.157 148.106 156.149 148.177 156.163 148.298C156.636 152.581 156.907 157.574 156.883 158.173C156.863 158.648 156.706 159.14 156.039 159.627C153.094 161.78 144.81 164.066 142.431 166.665C141.464 167.723 141.316 168.816 142.713 169.51C142.875 169.592 142.667 169.793 142.565 169.947C140.999 172.321 144.279 174.786 146.106 172.68C146.866 171.802 146.908 170.619 146.132 169.683C145.976 169.497 145.982 169.492 146.195 169.386C150.785 167.106 152.515 166.17 154.855 165.356C157.521 164.428 157.502 164.203 157.44 164.83C156.992 169.41 156.817 170.209 158.284 170.785C158.663 170.932 158.493 170.781 158.557 172.682C158.579 173.372 159.134 174.02 159.658 174.126C161.316 174.459 162.443 174.33 162.114 170.9C162.037 170.116 163.457 170.767 163.337 168.578C163.277 167.469 162.892 166.194 162.672 164.546C162.64 164.31 162.572 164.203 163.36 164.181C166.528 164.093 171.405 164.424 174.486 165.197C174.628 165.233 174.588 165.282 174.526 165.35C173.369 166.595 173.541 167.939 174.454 168.775C176.124 170.303 178.68 168.817 178.223 166.601C178.014 165.58 177.303 165.428 177.984 165.284C178.89 165.091 179.546 163.562 177.292 162.305C173.176 160.009 162.372 159.851 162.354 158.611C162.316 156.043 162.671 152.506 162.937 149.953C163.175 147.677 163.043 147.778 163.462 147.745C171.356 147.089 178.157 145.032 180.794 137.696C182.165 133.884 184.533 116.835 183.31 109.485H183.311ZM142.179 136.808C140.311 138.059 138.073 138.574 136.397 137.078C133.772 134.734 141.652 132.404 145.077 131.592C145.237 131.554 145.316 131.636 145.266 131.774C144.394 134.174 143.714 135.78 142.178 136.809L142.179 136.808ZM164.686 160.309C167.394 160.749 175.19 161.621 177.38 163.198C177.847 163.535 178.257 163.986 177.942 164.415C177.068 165.6 174.512 163.39 163.02 163.302C162.3 163.297 162.471 163.332 162.441 161.494C162.435 161.111 162.126 161.149 162.026 161.367C161.719 162.037 161.864 164.142 162.008 165.075C162.198 166.298 162.493 167.459 162.533 168.82C162.551 169.488 162.469 169.823 160.67 170.075C159.068 170.3 157.735 170.186 157.831 168.583C157.883 167.668 158.58 161.048 157.665 161.116C157.382 161.136 157.452 161.357 157.456 162.553C157.458 163.327 157.502 163.463 156.999 163.636C148.822 166.467 146.135 169.228 143.848 168.959C142.137 168.759 142.212 167.786 143.515 166.771C145.874 164.929 154.916 161.27 156.247 160.345C157.727 159.316 157.59 158.262 157.54 156.656C157.468 154.33 157.236 150.464 157.071 148.78C156.966 147.725 156.971 148.367 160.492 147.968C160.985 147.912 161.482 147.888 161.976 147.861C162.239 147.847 162.261 147.857 162.244 148.136C162.13 149.856 161.609 154.241 161.717 158.405C161.741 159.306 161.905 160.406 162.318 159.769C162.527 159.448 162.284 159.921 164.686 160.312V160.309Z"></path></g><g id="lamps"><path id="vector_56" fill="#000000" d="M148.108 39.6379C150.722 36.9229 162.045 25.2899 162.065 25.2699C162.422 24.9089 162.343 12.4319 162.326 12.1449C162.298 11.6559 162.48 11.4869 162.717 11.4789C162.988 11.4689 163.102 11.6409 163.144 11.8599C163.186 12.0789 163.104 12.5299 163.082 23.3389C163.08 24.4299 162.801 24.9869 163.295 25.3679L174.321 33.9359C182.812 40.5989 182.52 39.6009 175.003 39.8829C147.008 40.9319 146.142 41.6789 148.107 39.6379H148.108Z"></path><path id="vector_57" fill="#000000" d="M82.766 39.9293C82.461 39.6363 82.34 39.5373 83.041 38.7043C83.742 37.8713 94.528 26.3733 95.376 25.4713C96.058 24.7453 96.046 24.7113 96.036 24.5053C95.841 20.2943 95.523 10.1233 95.553 9.90033C95.602 9.54133 96.108 9.54333 96.148 9.90833C96.502 13.1993 96.509 24.3853 97.018 24.7493C114.46 37.2263 116.393 38.0813 114.121 38.0813C114.119 38.0333 83.356 40.4953 82.766 39.9283V39.9293Z"></path><path id="vector_58" fill="#000000" d="M31.546 25.1506C31.546 25.5956 31.576 25.6126 31.734 25.7096C49.256 36.4216 49.774 36.9276 47.462 37.2646C32.21 39.4886 18.543 42.0356 17.952 41.7176C17.139 41.2796 19.299 39.7536 30.708 25.8056C30.85 25.6326 30.896 25.5166 30.896 25.2106C30.896 24.8696 30.312 10.3956 30.315 10.3756C30.377 10.0436 30.863 9.86858 31.029 10.2896C31.154 10.6066 31.546 24.9006 31.546 25.1506V25.1506Z"></path></g></g></svg>