<svg xmlns="http://www.w3.org/2000/svg" viewBox="0 0 400 400" height="400" width="400"><g><g><path d="M263.72 293.52a16.18 16.18 0 0 1 1.8 7.68c.24 5.38 2.3 18.92 2.3 20.46 0 9.5-99.76 12.7-115.4-1.14-12.42-10.92 2.94-25.72 2.94-25.72Z" fill="#d3ffcf"></path><path d="M289.12 373.76a48 48 0 0 1-3.08-9.04A69.22 69.22 0 0 0 282 354a90.7 90.7 0 0 0-6.3-12.88c-2.14-3.22-.9-5.66-1.68-12.72s-2-7.34-5.2-9.48-7.82 1.52-11.8 2.44c-3.08.72-9.42 1.6-13.64 2.12-1.18-15.38.48-4.74-2.12-24.2 5.38-.74 11.18-1.7 11.2-1.7 2.34-.52 6.26-1.74 8-2 2.58-.48 3.66 0 4.66-1.12.34-.36.76-.66.46-1.22s-.3-1.42-1.28-1.36a12.44 12.44 0 0 1-6-.34 11.22 11.22 0 0 0-4.62-1.08c-2 .52-9.38 6.54-17.2 6.9-10.88.5-8-2.34-12.26.2-1.6.96-2.22 1.26-6.96 1.02a16.28 16.28 0 0 1-7.48-2.32c-2-.98-11.24 1.86-11.28 1.86-7.72 1-7.34-.16-11.74-2.34-1.34-.66-1.9-.16-3.72.6-.46.18 2.6 1.44 6 2.82 3.12 1.24 6.54 2.64 8 2h1.5l-2 12.14.96 11.04v.18a33.26 33.26 0 0 1-8.22-.22c-6.28-1.06-14.72-2.3-23.76-4.44s-20.36 1.54-21.44 3.06-8 20.54-9.04 23.3-.46 6-.46 9.18-2.2 6.56-2.58 9.12-.3 7.82-1.54 10.74-3.52 10.58-2.44 10.72c26.8 3.22 21.28-5.68 41.2.3s42.9-3.52 48.72-.62 42.14.16 45.5 1.08 32.34 1.68 32.34.62-5.6-11.04-6.66-13.64Zm-73.54-47.18c-3.08.3-9.04-1.54-11.66-2.16a10 10 0 0 0-2.68 0v-12l1.88-10.94c5.5 0 6-.22 7.18.68s1.1 0 8-.22a21.46 21.46 0 0 1 1.3 6.52c-.28 2.2-.18 17.84-.18 17.84h.2c-1.14.02-2.6.12-4.04.28Zm22.74-2.38a21.64 21.64 0 0 1-5.44 1.76c-2.26.12-5.66.14-8 .14l-.6-24.52 3.32-.2c4-.28 2.82-1.24 5.44-1.26.98 0 2.64-.16 4.56-.4a240.58 240.58 0 0 1 .72 24.48Z" fill="#84d492"></path><path d="M153.84 292c2.64.86 3.32.22 4.8 1.54a28.58 28.58 0 0 1-4.8 3.4c-1.82-.42-2.64-1.14-2.24-2.86.4-1.34.98-2.54 2.24-2.08Z" fill="#d3ffcf"></path><path d="M336.72 214.66c1.12 5.16.46 21.26.2 22.76-1.68 9.12-10.42 11.7-16.78 10.6-11.04-2-18.52-10.72-42.92-30.9-1.16-.94.92-1.82 1.68-5.5a13.14 13.14 0 0 1 2.76-4.98c1.22-1.74 8.3-14 9.6-16 .46-.72.46-.74 8.8 6.12 1.04.86 6.96 29.58 11.06 26.82 1.7-1.14-2-3.88-4.32-12.32-4.22-15.82-8.9-41.86-15.68-56.8-.68-1.5-2.8-7.66-4.26-9.34-3.32-3.88-15.82-5.16-19.04-11.86-.94-2-.44-1.28-3.66-11.3-.52-1.66 0-1.86.28-2.18s1.36 0 1.74.42a13.62 13.62 0 0 1 2.26 4c2.98 6.54 1.9 7.48 4 8 4.68 1.32 3.68-1.5 8.56-.66a31.6 31.6 0 0 0 4.52.96c.76 0 1.48-1.18.2-1.68a10.58 10.58 0 0 0-3.88-1.28c-1.36 0 0-3.2-1.2-6.92-2.58-8.8-.86-8.5-3.4-10.72-1.66-1.44-4.16-3.8-6.16-3.58s-1.42 1.24-3.86 6.12c-1.66 3.3-3.58 3.58-2.94 1.22a42.6 42.6 0 0 0 2.32-8.7c.72-4 4-4.64 6-3.42 2.84 1.76 2.3.76 6.16 3.02 4.46 2.6 1.52-5.72 2.46-19.88a50.5 50.5 0 0 1 .92-8.1c0-.34.18-1.52 1.02-1.68s1.26.66 1.38 2c.44 4.8-1.52 18.4 2.16 30.3-1.7 0-3.72-.48-3.22 1.12.1.3 2.52.66 2.58.66 7.46 1.04 12.32 5 12.96 3.54.44-1.04-.76-1.52-1.88-2s-.28-.36 1.68-5.36c1.46-3.76 5-20.3 7.12-20 .66 0 1.2.34 1.18 1.3 0 3.76-4.78 13.84-5.86 23.06-1.22 10.18.96 4.26-1 24.28-.46 4.78 3.02 5.5 9.34 18.88 0 0 7.9 18 10.34 22.56 5.82 10.98 14.5 26.76 16.78 37.42Zm-38-96.14c.92-1.4-12.74-6-16-5.28a.84.84 0 0 0 .5 1.6c6 .18 12.76 4 14.42 4.42.68.1.88-.38 1.12-.74Zm-.96 22.36c1.66-2-7.06-1.58-6.58-8.36.4-5.68 4.32-12.34 2.38-12.74-.66-.14-1.08-.12-1.6 1.46-3.18 9.54-6 17.26 4.38 20.1.24.04.7.4 1.46-.46Z" fill="#c49e91"></path><path d="M294 110.88c0 .54.28.58-4.12-1-.44-.16-.32-.2.36-6 0-.3.56-17.14 2-22.74.32-1.16.32-1.88 1.28-2.2 3.08-.94-.78 13.8.48 31.94Z" fill="#c49e91"></path><path d="M292.82 183.26c.88.74.5 0-4.76 7.88-3.84 5.82-5.66 10-8.44 14-5.52 7.88-5.06 14.58-7.24 11.56-2.84-4-7.9-7.02-10-10-1.12-1.54.14-1.82-1.02-7.22-1.68-8-.26-9.52-2.4-17.06-.28-.92-1.88-1.18-2 0 0 .78.56 3.34 1.12 7.26a54.22 54.22 0 0 0 1.1 10.48c1.86 8.88-2 18.68-1.78 29.02.42 17.62-1.12 20-.52 27.74.5 6.54.98 2.34 3.78 13.64.14.54-27.7-14.96-56.3-51.62-3.68-4.7-51.38-64.3-51.26-64.34 3.3-1.12 4.16-1.74 5.7-.32 7.2 6.96 12.34 13.72 30.78 18.82 38 10.34 60.82-21.52 64-21.08 8 1.18 8.94.52 12.38 3.82 7.06 6.78 6.46 9.18 16.22 18.5 2.16 2.14 7.64 6.42 10.64 8.92Zm-40.96 43.58c.4-.18 1.08-.68.68-1.22-2.2-2.88-6.16 5.8-24.26 2.68-12.26-2.12-11.28-4.14-14.7-4.26-.92 0-1.12.32-1.16.7a.92.92 0 0 0 .64.88c4.66 1.54 5.32 4 16 5.24 15.08 1.68 20.04-2.86 22.8-4.02Z" fill="#fff59e"></path><path d="M268.68 312.6c7.86 1.9 19.4-4.78 25.8-7.86-1.48-6.26-4.84-18.82-10.32-22.18-4.34-2.66-6-4.3-8.36-4.66a26.44 26.44 0 0 0-5.86-.88c-4.18.26-3.88.22-3.74 1.04a2.74 2.74 0 0 1-.3 2.7c-.42.5 1.84 3.76.16 8.66-.3.84.34 0 1.62 3.16 1.12 2.62-1.5 3.46-1.68 4.14s.26.98.36 1.5c.76 3.4.46 13.92 2.32 14.38Z" fill="#e3b27d"></path><path d="M295.5 311.58c-.18 0-3.88 1.5-4.88 2.12-4.74 2.9-5.12 2-11.3 4a13.64 13.64 0 0 1-5.38.8c-1.42 0-2.44.16-2.88-.28a.98.98 0 0 1-.26-.76c0-1.82 1.9.16 9.22-2.24 3.16-1.02 5.54-.98 8.94-3.22a59.08 59.08 0 0 1 5.72-2.5c.76-.34.88-.76 1.12-2.54.12-.9-.58-.46-6.32 2.66-5.38 2.92-8.28 2.68-11.24 4.36-1.76.98-6.82.96-8.98.78-.7 0-1.4-.48-1.14.3.48 1.46 0 2 .94 2.48a8.88 8.88 0 0 1 5.58 7.7c.3 4 1.02 5.86 1 8.86 0 7 2.44 5.44 6.38 16.4 2.26 6.28 2.4 6 2.8 6a7.26 7.26 0 0 0 6.58-2.82c7.04-11.06 5.76-10.46 5.56-34.24-.02-.96 1.14-8.96-1.46-7.86Z" fill="#e3b27d"></path><path d="M254.76 269.8a148.96 148.96 0 0 1-16-11.7c-23.26-19.74-28.96-29.5-43.8-47.36-21.14-25.46-37.76-49.24-44-54.92-1.52-1.36-1.52-1.36-2.44-.96s-1.32.64-.96 1.06 2 2 2.66 2.7c47.74 57.18 56.5 80.38 95.54 108.8 18.58 13.52 18.94 14.54 18.8 11.04s-.38-1.42-9.8-8.66Z" fill="#e3b27d"></path><path d="M263.74 282.5c.72 1.9 1.32 5.84-.6 6.54-2.88 1.06-4.78-.74-8.36-1.26s-10.26 8-21.56 6.94h-1.64c-4.42-.82-5.24-1.62-8 0a4.7 4.7 0 0 1-3.34 1.24 14.1 14.1 0 0 1-9-1.86c-4-2.18-10.28 2-17.74 1.88a11.56 11.56 0 0 1-5.5-2.36c-3.42-2.1-5.76 2.2-10.88.26-2.76-1.06-6.88-.54-10.6-1.24a13.48 13.48 0 0 0-4.56 0c-1.26.54-.42-.88-3.12-2-.88-.36-4-.46-5.52-1.7-1.84-1.5 1.24-2.66 1.66-5.5a10.8 10.8 0 0 1 .84-3.88c2.6-4.34 2.54-5.26 2.66-7.04a17.06 17.06 0 0 1 .58-6.58c1.2-2.26-1.74-10.66-2.26-12.2-4.2-12.3-2.78-5.3-4.72-17.84-1.52-9.86-2.92-9.86-3.04-15.04s1.34-5.32 0-8.6a10.58 10.58 0 0 0-1.58-2 4.2 4.2 0 0 1-.3-5.16 25.66 25.66 0 0 0 3.66-12.44c.5-3.42.78-6.9-.58-6.84-2.34 0-.18 6.82-2.88 14.18-1.34 3.68-4.3 5.76-6.6 8-6.26 6-3.54 6.54-7.24.32-5.32-8.94-4.96-8.78-7.38-11.28-4.2-4.36-3.16-2.82-5.16-5.62a21.2 21.2 0 0 0-7.72-6.72c-.48-.14 7.22-8 10.36-11.14 13.08-12.58 12.74-7.32 16-12.7 1.54-2.5 2.34-2 5.8-3.54 4-1.64 58.22 78.88 83.46 99.52 15.68 12.68 34.8 25.54 34.86 25.66Zm-70.18-57.4a.94.94 0 0 0 .9-.94c0-2.14-3.82-.32-6.62 0-16.14 1.38-14.52.96-24.36-2a22.72 22.72 0 0 1-5.24-2.94c-2-1.06-4 5.58 19.6 8.1 0 0 9.14-1.04 9.18-1.04a45.1 45.1 0 0 0 6.54-1.18Z" fill="#fff59e"></path><path d="M258.96 65c-1.5 2.6 4.46 5.34 3.42 9.8-.74 3.22-3.34 3.56-4.96 4.62s-1.88 2-.26 4.24a3.86 3.86 0 0 1 .26 4.78c-2.2 2.42-5.48 1-5.56 3.48-.1 3.14 1.46 4.28-.88 5.56s-5.04-.9-6 .16 0 1.7.26 2.9c.68 2.36-.98 1.68-4.52 3.62-1.72.96-2.48 3.42-.68 6.32 2.9 4.7 3.06 4.98-.82 7.44-6.88 4.4 1.76 7.86-.98 11.4s-2.62 5.16-2.48 6-.64.92-1.22-.32a4.34 4.34 0 0 1 .34-5.2 4.38 4.38 0 0 0 1.02-3.56c-.12-.98-1.36-2-2.72-2.98a3.5 3.5 0 0 1-.4-4.38c1.76-2.7 2.72-2.3 3.14-4 .34-1.36-1.36-2.7-2.34-4.92-.26-.4 8.56-8.52 9.2-15.58a5.72 5.72 0 0 0-2-5.54c-.36-.22-.56-.34-.46-.98 5.08-33.7 6.74-43.02 7.26-45.5.26-1.3 0-1.82-.8-2.14s-1.5.16-1.6-1.04c-.64-6.68-9.1-10.24-15.8-10.24a9.52 9.52 0 0 0-9.24 4.32c-.42.84-.48 1.34-1.02.78a8.36 8.36 0 0 0-7.6-2.32c-3.56.48-3.68 2-3.82.74-1.1-10.38-20-11.36-25.44-2.84-.72 1.14 0 2-1.78 2.16-3.14.16-1.76 1.08-2.8 37.8-.64 22.6.4 11.02-2.14 24.22-1.6 8.24 1.56 11.22-.64 15.28a19.56 19.56 0 0 1-2.16 2c-1.88 2.12 1.6 3.48 1.4 5.74a6.14 6.14 0 0 1-2.64 3.44.36.36 0 0 1-.56-.4c1.08-3.68 0-4.18-2.2-6.62-1.86-2-.3-3.1 2.34-5.22 1.76-1.4.76-2.42-.3-3.24-4.78-3.7-3.46-3.7-1.28-7.88.98-1.88.5-2.62-.38-3.5s-2.9-2.24-3.44-3.8a6.24 6.24 0 0 1 .78-5.6c2-2.64-2.62-.74-4.58-3.34-1.64-2.18.52-4.18 1.16-4.72 1.28-1.08.84-2.14-.2-2.1-5.86.22-7-4.52-3.12-8 1.22-1.06 1.8-1.86 0-2.62-3.58-1.44-2-2.4 0-3.78 1.6-1 2-2-.42-2.8-4.5-1.42-4-5.42-1.04-7.66s4 .42 5.52-.32c1.12-.54.12-2.48-.62-3.02-4-2.98-1.48-5.2-.22-5.26 2.66-.16 2.5.2 3.86-.14 3.68-.9.62-3.76.38-6.16-.12-1.1.44-3.28 2-2.84 1.08.28 3.6 1.44 3.22-.8a4.74 4.74 0 0 1 3.36-5.82c1.2-.26 1.2.4 3.06 1.64s3.74.5 3.78-.78c0-2.84-1.1-6 4.7-8.62a5.7 5.7 0 0 1 5.82 1.52c.82.9 1.3 1.62 2.16.26a10.6 10.6 0 0 1 3.18-4.46 9.02 9.02 0 0 1 7.48-2 6 6 0 0 1 5.1 4.72c.18.7 0 1.28.9 1.52.6.16 1.22-.74 1.32-.94a5.14 5.14 0 0 1 4.38-2.82c3.46.46 3.12 3.52 3.66 4 1.8 1.68.72-4.12 8.7-2.86a7.72 7.72 0 0 1 5.78 5.22c1.04 2.34-.36 2.24.36 4 .48 1.22 1.38.8 2.3-.18 2.78-3.04 6.48-2.44 5.76.12a7.08 7.08 0 0 0-.72 2.82 1.04 1.04 0 0 0 1.74.72c2.54-2.76 10.76-.3 8.98 5.84-.5 1.76-1.12 3.08.12 3.62 3.38 1.46 4.54 1.58 6.6 4.26a6.48 6.48 0 0 1 .36 8c-.26.38-1.7 1.26-2.24 2a1.12 1.12 0 0 0 .7 1.76c2.7.32 5.2 4.8 2.16 8.32-1.58 1.92-2.14 1.3-2.94 2.7Z" fill="#585858"></path><path d="M241.72 49.18c4.4-4 3.5-14.44-3.72 37.5 0 .46-.22.68-.7.72s-1.3.3-2-.16a2 2 0 0 1-.72-2.84c.84-1.42 3.12-1.88.2-3.56-2.34-1.34.52-3.26 1.08-4.68 1.3-3.28-4.92-1.06-5.08-4.22-.24-4.32 5.14-2.26 4-7.76-.38-1.78-1.9-1.78-4.48-2.38-1.14-.26-1.7-1.18-2.32-2-1.22-1.76 2-5.22.46-6.3s-3.82 3.78-6.32 2.24c-1.04-.62-2.4-1.26-2-2.42.82-2.64-.88-3.2-2.14-2a2.64 2.64 0 0 1-4.28-1.6c-.42-2.42-2-1.84-2.5-.48-.74 2.42-3.24 4.74-5.16 4a4 4 0 0 1-2.8-2.62 1.3 1.3 0 0 0-2.36.16c-1.16 2.34-1.46 2-3.4 2.14-1.6.12-2.5-.94-3.38-2.24a1.24 1.24 0 0 0-2.34.5 6.16 6.16 0 0 1-2.52 6.82 10.76 10.76 0 0 1-4.8 1.3c-2.3.28-2.18-1.48-3.66.1-.24.28 0 .12-.52.44-.12-.7-.14-24.14.56-24.12s-.56 1.78 2 5.76c6 9 18.84 5.36 22.66-1.36 1.56-2.76 2.28-4.74 4.92-5.58a6.46 6.46 0 0 1 7.1 2 26.44 26.44 0 0 1 1.64 4.28c2.22 9.4 14.42 15.94 22.58 8.36Z" fill="#585858"></path><path d="M248.6 152.62c-5.1 5.54-8.26 6.82-14.64 10.78a40.74 40.74 0 0 1-15.38 7.2 48.96 48.96 0 0 1-11.6 2h-3a62.26 62.26 0 0 1-35.28-11.78c-9.56-8.68-9-6.68-4.2-8 16.28-4.26 16.9-4 20-15.78a63.26 63.26 0 0 0 2.44-13.04c1.58.98 7.22 6.9 14.46 5.8 8.38-1.3 12.48-5.08 14-5.62.14 1.86-3.38 11.68-1.14 20 2.5 9.08 25.94 6.46 34.34 8.44Zm-45.54 4.62c1.6 0 9.68-1.18 9.34-2.74-.42-2-3.84 1.3-10.14 1.04-.7 0-.98 0-3.68-1.42-4.42-2.2-5.38-1.36-12.66.54-2.66.7-1.66 2 .22 1.48s7.5-2.24 9.28-1.48c5.44 2.34 6.04 2.72 7.64 2.58Z" fill="#c49e91"></path><path d="M238.74 89.74c2.36 1.1 2.22 4.2 1.34 6.62a31.72 31.72 0 0 1-6 9.54 3.74 3.74 0 0 1-5.04.72c-.42-.24-1-.24-1.56.48-2.64 3.36-3.52 9.68-15.84 16.68-5.4 3.06-12 5.24-17.68 2.6-6.42-3-9.58-9.36-12.84-14.98-6.86-11.86-2.58-18.3-1.74-26.3.44-4-.2-8.88.2-14 .22-2.86.22-6.7 1.3-8.9.26-.5.5-.92.92-.98 1.4-.16 2 .6 4.52.12a9.56 9.56 0 0 0 6-2.86c2.52-3.06 1.46-4.3 2.46-3.82a6.14 6.14 0 0 0 7.14-.94c.88-.74.26.7 3.54 1.86 2.36.82 5.34-1.08 6.62-2.84.72-1.04.92 2.12 4.8 1.54 1.78-.26.58 3.2 5.76 4.14a6.8 6.8 0 0 0 2.68-.52c1.2-.5-1.38 2.3 2.94 5.56a10.16 10.16 0 0 0 3.66 1.16c.76.16 1.2.98.26 1.62-5.68 3.82-4 9.38-.34 10 .54 0 1.1.14.76.54a4.62 4.62 0 0 0 0 5.64c.78.82-.56.96-.4 4 .14 2.4 2 2.2 1.06 3.28-.64.78 0 2.14.88 1.68.7-.46 2.2-2.74 4.6-1.64Zm-.1 4.94c.66-.28.84-1.86-.24-2.86-1.56-1.46-4.46 1.08-5.5 4.18s1.42 2.78.16 4.42c-.74.96-1.84 1.84-.94 2.66s2-.6 2.78-1.48a2.76 2.76 0 0 0 .68-2.24c-.16-1.12-2.42-1.88.54-5.32.62-.72 1.16-.8 1.52-.16s.66.96 1 .8Zm-13.9-14.12c.72.92 2.24.38 1.82-.86a8.92 8.92 0 0 0-3.66-4.42 7.36 7.36 0 0 0-5.48-.92c-5.78.3-5.24 4-2.76 2.9 5.82-2.38 7.94.58 10.08 3.3Zm-9.18 26.64c-.12 1.28 1.54 2.72 2.22-.76-.62-6-5.72-5.36-4.16-3.36.54.7-1.42.78-2.3.8a57.7 57.7 0 0 1-18.28-2.6c-2.78-.78-3-.56-1.22 3.32 3.64 8 5.82 14.9 12.72 10.9 4.2-2.42 8.84-8.16 11.08-9.52.1 1.14.02.56-.06 1.22Zm.72-20.74c.34-1.7 0-2.54-.64-2.8a1.34 1.34 0 0 0-1.62 1.18c-.64 3.26 1.98 3.16 2.26 1.62Zm-9.08 10.3c2.32-.5 2.68-3.64 1.18-3.54-.64 0-.66.4-.88.72s-.54 1-1.32.7c-1.76-.68-1.68-3.12-3.08-1.2a3.22 3.22 0 0 1-5.76-.72c-.54-2.44.86-3.48 2.62-5.12a4.62 4.62 0 0 0 1.62-4.14c0-.76-.8-1.18-1.36-.42a7.14 7.14 0 0 1-2.42 3.42c-6.84 5.44 0 14.18 5.8 10 .42-.3.58-.64.94-.38a3.18 3.18 0 0 0 2.66.68Zm-8-26.3c1.28-2-3.44-4.6-8.86-2.64-4.48 1.6-5.66 6.18-3.18 5.46.6-.18.38-1.8 3.48-3.3 4.98-2.42 7.48 2.14 8.56.48Zm-3.7 10.96c.12-1.24-.74-2.22-1.6-2s-1.02.64-1.06 1.84.64 1.86 1.08 2c.94.14 1.52-.92 1.58-1.84Z" fill="#c49e91"></path><path d="M235.76 35.58c.26 3.26-2.68 3.08-2.12 7.14 1.06 7.42 1.88 7.38.24 7.3-3.48-.22-2.76.74-4-6a5.22 5.22 0 0 1 .58-4.54c3.52-5.46-1.22-8.9 2.28-8.12 2.16.64 2.74.48 3.02 4.22Z" fill="#ffffff"></path><path d="M201 105.22c9.08 1.72 12 .12 11.04.98-9.7 8.88-12 12.38-16.96.36-1.44-3.54-3.56-3.12 5.92-1.34Z" fill="#ffffff"></path><path d="M195.46 26c2.94.34.74 0 .12 4-1.04 6.64 3.22 2-2.12 13.8-.3.66-.4.6-3.38.12-2.16-.34 4.28-7.22 1.9-11.36-1.18-2 0-3.82.86-5.88.22-.5.08-.32 2.62-.68Z" fill="#ffffff"></path><path d="M186.4 304.62c5.2 1.5 6.18 1.42 6 2.16-.54 1.8-3.34 1.54-7.4.76-5.44-1.04-11.36-2.8-18-1.58-1.08.2-1 0-4.18-.26a.86.86 0 0 0-.66 1.54 50 50 0 0 0 7.26 1.78c2.4.44 3.6 0 5.14.8 4.2 2.44 4.66 1.12 6.88 2.54 5.68 3.62 8.32 3.2 6.84 4.54s-3.12.96-9.5-2.2c-4.26-2.12-9.54-1.04-16.46-2.76-1.82-.46-2.82 1.22-1.54 1.7 9.32 3.42 8.32 1.6 12 4.3 2.54 2 3.14 1.5 6.52 4 .86.64-.28 1.28-1 1.3-3.06 0-9.72-3.72-11.46-3.72a22 22 0 0 1-5.36-.78c-2.58-.62-11.76 6.9-17.26 8-4.72 1-9.56-2.56-10-4.28 0-.32-.18-.3 1.8-5.9 1.08-3.06 2.44 1.64 7.64-2.96a8.72 8.72 0 0 0 1.86-4.88c0-.68.86-1.5 3.12-3.6s4.2-4.12 5.84-5.52c8.54-7.32 8-5.28 16.82-4.58 6.28.48 4 .3 17.5 5.74.96.38 0 2.34-1.72 2a62.3 62.3 0 0 0-22.7-4c-1.02 0-1.78.74-1.66 1.2.5 2.04 2.88-1.3 23.68 4.66Z" fill="#c49e91"></path><path d="M136.56 303.6c5.4 1.08 7.8 6.7 2.94 7.74-7.5-.48-7.76-8.7-2.94-7.74Z" fill="#ffffff"></path><path d="M133.18 212.16a26 26 0 0 1-3.88 4.5c-3.04 2.74-2.48 3-3.24 2.3-4-3.76-6.62-9.7-15.7-16.86-5.56-4.4-6.66-1.16.42-9.5 4-4.68 3.14-4.88 4.2-4.14 3.58 2.48 4.3 5.44 9.18 10 2.92 2.68 2.84 3.74 4.74 6.86 1.42 2.22 3.72 5.86 4.28 6.84Z" fill="#c49e91"></path><path d="M126.78 296.82s5.1 4 4.56 4.64a8.28 8.28 0 0 0-.6 10c1.44 2.16-.56 2.18-1.34 7.6 0 .74.56.78-8.78-5.48-7.84-5.24-36.86-27.04-42.96-34.22-11.64-13.68-20.66-22-10.76-35.12 8.64-11.5 24.92-30.7 25.76-31.22 8.24 2.9 17.56 16.14 20.92 19.14.56.5 1.12.28-2.96 4.12 0 0-9.4 9.48-13.58 15-2.68 3.54-5.36 4.56-4.82 8 .6 3.8 31.78 34.72 34.56 37.54Z" fill="#c49e91"></path><path d="M101.38 203.04c9.32 4.58 21.76 20.2 21.02 20.92-5.02 4.92-4.42 4.84-5.12 4-3.28-3.62-13.38-15.48-18.78-18.68-1.78-1.06-2.28-.82-1.88-1.24 5.22-5.6 3.66-4.04 4.76-5Z" fill="#c49e91"></path><path d="M336.24 205.32c-2-5.64-27.34-56.94-27.36-56.98-4.74-9.06-7-7.48-6.16-14.48 1.8-15.3-.58-13.7.88-22.62a155.38 155.38 0 0 1 4.98-20.26c1.04-3.84.38-5.78-2.42-6-2-.18-3.24 1.72-4.52 5.28-1.9 5.22-3.62 12.96-5.34 17-.46 1.08.52-23.72.48-25.16a8 8 0 0 0-.84-4.34 2.66 2.66 0 0 0-2.86-.8c-2.66.72-2.86 3.64-3.56 8.72-1.08 8.12-1.32 21.7-1.68 19.66-1.64-9.1-1.5-11.68-1.64-22 0-1.38.16-3.34 0-5.06-.2-2.44-1.48-3.56-3.16-3.32-1.36.18-2.1.74-2.72 2.72-2.56 7.86-.64 26.92-1.52 26.18a15.34 15.34 0 0 0-3.1-1.36c-2.92-1.48-4.42-2.4-7.04-1.28-4 1.7-3.42 2.92-4.86 8s-2.32 6.48-1.66 8.64c.24.72-.78 2-.22 3.56 5.56 16.42.9 15.58 20.92 23.36 3.24 1.28 3.24 2.8 5.56 8.82 3.48 9.06 5.14 14.18 6 17.48s5.56 18 5.44 22.44a45.34 45.34 0 0 1-3.76-2.94c-.62-.48 0-.96.22-3.36a5.26 5.26 0 0 0-1.14-4.72c-1.76-1.62-4.6-4.24-9.84-8.54C270.6 162 272 149.76 254 150c-.8 0-2.46-1-4 .4-.52.5-9.54-1.48-15-1.14-1.04 0-15.82-.76-17.88-4.24-2.32-3.86-1.44-11.02-.86-13.76 1.58-7.36 1.24-9.14 3.3-10.5a33.1 33.1 0 0 0 8.44-11.02c.2-.46.3-1.18.64-1a5.3 5.3 0 0 0 2.5.82c.76 0 .7 2 2.78 4.34.32.34.18.3-1.4 1.72a6.24 6.24 0 0 0-.22 9.26c1.88 1.46 2.12 1.68 1.68 2.64a6.94 6.94 0 0 0-1.4 7.34 9.14 9.14 0 0 0 2 2.62c.96 1.1 3.34 1.3 2.9-.54-1.5-6.5 6.78-4.62 1.32-14.12-2.46-4.3 9.46-2.8 4.12-12-1.26-2.16-2.9-3.88-.6-4.86s2.96-.9 4.28-2.14c1.9-1.8 0-4 1.24-3.84 4.44.9 8.18-2.5 6.14-6.52-1.28-2.56 5.76-.68 6-6.82.22-4.86-3.08-4.82-.92-5.84a7.48 7.48 0 0 0 4.64-3.46c2.8-5.6-1.64-9.58-2.82-11.3 4.26-2.44 5.52-5.82 4.26-9.88-.94-3.08-3.1-3.02-2.16-4.1a8.94 8.94 0 0 0 1.88-6.36C262 34.98 255.06 38 256 36a7.46 7.46 0 0 0-2.88-9.48 10.3 10.3 0 0 0-6.36-1.38c-.42-.48.3-4.12-3.7-4.42s-4.16 1.76-4.46.6a12.9 12.9 0 0 0-5.34-6.8 10.56 10.56 0 0 0-5.54-1.06c-5.04.12-4.68 2-5.8.88-4.66-4.82-8.9.86-9.34-.24-1.48-3.7-12.28-7.42-18 1.32-.34.52-.54.82-.86.48a7.32 7.32 0 0 0-7.12-1.1c-9.8 4-4.44 10.58-6.46 9.36s-3.42-2.56-5.62-1.44c-5.64 2.86-3.08 7.02-4.66 6.44-2.88-1.08-5.62 2.72-4.8 5.7 1.28 4.66 1.28 2.42-2.34 2.98a4.6 4.6 0 0 0-4 4.76c.16 2.96 1.58 3.32.58 3.44a7.24 7.24 0 0 0-5.02 9.38c1.1 3.14 3.68 2.78 2.72 3.52a3.36 3.36 0 0 0 .22 5.86c.3.2.3.32 0 .54a6 6 0 0 0 2.52 10.24c.78.18-.16.22-.48 2.96A4.88 4.88 0 0 0 163.6 84c1.54.1-3.46 5.5 3.34 10.16 2.48 1.7-.62 2.86-1.06 5.76-.56 3.54.98 4.2 3.4 6.12 1.22.96 0 .96-2 2.72a3.44 3.44 0 0 0-.72 4.76 19.64 19.64 0 0 0 2.16 2.48c1.44 1.68.7 2.9 0 5.12-.36 1.3.72 2.12 1.64 1.64 4.76-2.44 7.6-5.46 4.38-9.72-.94-1.26 1.16-.66 2.32-4.38 0-.1.16-.3.28 0 4.22 9.12 7.32 11.4 7.3 15.1 0 4.16-2.54 18-5.7 21.34-2.8 2.96-7.7 3.88-18.82 6.46-2 .46-1.42-1.2-4.46-.22-4.98 1.58-5.04 2-5.7 1.58s-1.16-.3-4.24.9c-1.22.48 0 .64-2 1.52-3.04 1.34-4.68 1.74-6.62 5.2s-3.16-2-23.36 20c-2.78 3-4.18 3.7-4 5.78.2 2.48 1.44 2.9.28 4-4.38 3.86-28.42 31.66-32 36.2-20.98 26-25.84 27.62-.98 56.12 4.3 4.94 45.24 37.12 51.54 39.04 1.1.34.16 1.58 2.68 2.7 1.68.74 1.1-.26 3.22 1.74 4.2 4 5.62 2.58 5.24 3.58-1.6 4.22-6.94 17.56-6.44 21.54.66 5.2-1.26 6.94-2 10.62-1 4.38-.32 6.52-1.12 10.8-.7 3.64-1.24 1.7-2.86 12.14-.34 2.24 2 2.6 2.32 1.12a44.12 44.12 0 0 1 1.52-8 25.76 25.76 0 0 0 2-10c.8-11 3.3-8.72 2.58-16.12-.36-3.78.64-4.92 6.14-21.74.3-.92.88-.36 2.46-.7 7.7-1.66 14.76-8.66 16.48-8.32 12.28 2.56 2.32-.44 14.5 4.28 4.56 1.78 6-1.32 7.28-1.12 0 0 17.32 2.32 18.52 1.42.78-.58.5.36 5.44.78 2.4.22 3.62.92 6 1.12s6.28-.7 7.3-.48a28.2 28.2 0 0 0 8.14-.34 34.98 34.98 0 0 0 8.7-.3c2.64-.56 1.46-1.38 3-1.36 1.18 0 9.06-.9 9.12-.9a83.1 83.1 0 0 0 18.3-4.88c.64 0 1.2.86 2 1.14a5.46 5.46 0 0 1 2.54 2.7c1.28 1.74.68 3.26 1.32 6.34a46 46 0 0 1 .6 8c.48 4 1.12 2.64 5.08 11.12.94 2-.8-1.62 6 15.06 4.66 11.5-2.28-1.74 9.54 23.62.6 1.28.98 3.38 2.54 2.88 2.78-.86-6-13.08-7.9-21.72s-4.78-9.2-2.28-9.34a9.1 9.1 0 0 0 7-3.5c4-6.5 6.12-8 6.24-20.72 0-6.56-.44-14.86 0-17.64.88-5.42-2-6.64-1.56-8.34.46-2.3.34-2-.78-4.48-2.34-5.3-4.7-19.72-11.7-23.86-6.32-3.74-6.4-4.54-8.66-4.78-3.12-.34-4.84-1.28-9.06-.62-1.48.22-2 .36-2.44 0-2.3-2-2.3-2.22-2.38-3.04-.48-5.4-3.66-11.38-3.86-13.54a134 134 0 0 1 .42-15.78c.86-12.14-.7-11.18.42-20.38.5-4 1.04-6.28 1.72-12 0-.4-.48-.98 5.04 4 4 3.54 8 10 10.98 6.92.32-.32.56-.24.86 0 2.66 2.4 4.18 3.38 6.96 5.76 9.76 8.32 25.22 25.02 38 23.88 16.18-1.42 16-11.86 16-28a43.38 43.38 0 0 0-3.5-17.62Zm-46-101.46c0-.3.56-17.14 2-22.74.32-1.16.32-1.88 1.28-2.2 2.98-1.02-.88 13.74.42 32 0 .54.28.58-4.12-1-.34-.2-.22-.24.46-6.06Zm-114.7-10.24c-1.6 8.24 1.56 11.22-.64 15.28a19.56 19.56 0 0 1-2.16 2c-1.88 2.12 1.6 3.48 1.4 5.74a6.14 6.14 0 0 1-2.64 3.44.36.36 0 0 1-.56-.4c1.08-3.68 0-4.18-2.2-6.62-1.86-2-.3-3.1 2.34-5.22 1.76-1.4.76-2.42-.3-3.24-4.78-3.7-3.46-3.7-1.28-7.88.98-1.88.5-2.62-.38-3.5s-2.9-2.24-3.44-3.8a6.24 6.24 0 0 1 .78-5.42c2-2.64-2.62-.74-4.58-3.34-1.64-2.18.52-4.18 1.16-4.72 1.28-1.08.84-2.14-.2-2.1-5.86.22-7-4.52-3.12-8 1.22-1.06 1.8-1.86 0-2.62-3.58-1.44-2-2.4 0-3.78 1.6-1 2-2-.42-2.8-4.5-1.42-4-5.42-1.04-7.66s4 .42 5.52-.32c1.12-.54.12-2.48-.62-3.02-4-2.98-1.48-5.2-.22-5.26 2.66-.16 2.5.2 3.86-.14 3.68-.9.62-3.76.38-6.16-.12-1.1.44-3.28 2-2.84 1.08.28 3.6 1.44 3.22-.8a4.74 4.74 0 0 1 3.36-5.82c1.2-.26 1.2.4 3.06 1.64s3.74.5 3.78-.78c0-2.84-1.1-6 4.7-8.62a5.7 5.7 0 0 1 5.82 1.52c.82.9 1.3 1.62 2.16.26a10.6 10.6 0 0 1 3.18-4.46 9.02 9.02 0 0 1 7.48-2 6 6 0 0 1 5.1 4.72c.18.7 0 1.28.9 1.52.6.16 1.22-.74 1.32-.94a5.14 5.14 0 0 1 4.38-2.82c3.46.46 3.12 3.52 3.66 4 1.8 1.68.72-4.12 8.7-2.86a7.72 7.72 0 0 1 5.78 5.22c1.04 2.34-.36 2.24.36 4 .48 1.22 1.38.8 2.3-.18 2.78-3.04 6.48-2.44 5.76.12a7.08 7.08 0 0 0-.72 2.82 1.04 1.04 0 0 0 1.74.72c2.54-2.76 10.76-.3 8.98 5.84-.5 1.76-1.12 3.08.12 3.62 3.38 1.46 4.54 1.58 6.6 4.26a6.48 6.48 0 0 1 .36 8c-.26.38-1.7 1.26-2.24 2a1.12 1.12 0 0 0 .7 1.76c2.7.32 5.2 4.8 2.16 8.32-1.66 2-2.24 1.3-3.02 2.7-1.5 2.6 4.46 5.34 3.42 9.8-.74 3.22-3.34 3.56-4.96 4.62s-1.88 2-.26 4.24a3.86 3.86 0 0 1 .26 4.78c-2.2 2.42-5.48 1-5.56 3.48-.1 3.14 1.46 4.28-.88 5.56s-5.04-.9-6 .16 0 1.7.26 2.9c.68 2.36-.98 1.68-4.52 3.62-1.72.96-2.48 3.42-.68 6.32 2.9 4.7 3.06 4.98-.82 7.44-6.88 4.4 1.76 7.86-.98 11.4s-2.62 5.16-2.48 6-.64.92-1.22-.32a4.34 4.34 0 0 1 .34-5.2 4.38 4.38 0 0 0 1.02-3.56c-.12-.98-1.36-2-2.72-2.98a3.5 3.5 0 0 1-.4-4.38c1.76-2.7 2.72-2.3 3.14-4 .34-1.36-1.36-2.7-2.34-4.92-.26-.4 8.56-8.52 9.2-15.58a5.72 5.72 0 0 0-2-5.54c-.36-.22-.56-.34-.46-.98 5.08-33.7 6.74-43.02 7.26-45.5.26-1.3 0-1.82-.8-2.14s-1.5.16-1.6-1.04c-.64-6.68-9.1-10.24-15.8-10.24a9.52 9.52 0 0 0-9.24 4.32c-.42.84-.48 1.34-1.02.78a8.36 8.36 0 0 0-7.6-2.32c-3.56.48-3.68 2-3.82.74-1.1-10.38-20-11.36-25.44-2.84-.72 1.14 0 2-1.78 2.16-3.14.16-1.76 1.08-2.8 37.8-.56 22.42.4 10.84-2.06 24.04Zm59.26-12.78c-2.34-1.34.52-3.26 1.08-4.68 1.3-3.28-4.92-1.06-5.08-4.22-.24-4.32 5.14-2.26 4-7.76-.38-1.78-1.9-1.78-4.48-2.38-1.14-.26-1.7-1.18-2.32-2-1.22-1.76 2-5.22.46-6.3s-3.82 3.78-6.32 2.24c-1.04-.62-2.4-1.26-2-2.42.82-2.64-.88-3.2-2.14-2a2.64 2.64 0 0 1-4.28-1.6c-.42-2.42-2-1.84-2.5-.48-.74 2.42-3.24 4.74-5.16 4a4 4 0 0 1-2.8-2.62 1.3 1.3 0 0 0-2.36.16c-1.16 2.34-1.46 2-3.4 2.14-1.6.12-2.5-.94-3.38-2.24a1.24 1.24 0 0 0-2.34.5 6.16 6.16 0 0 1-2.54 6.82 10.76 10.76 0 0 1-4.8 1.3c-2.3.28-2.18-1.48-3.66.1-.24.28 0 .12-.52.44-.12-.7-.14-24.14.56-24.12s-.56 1.78 2 5.76c6 9 18.84 5.36 22.66-1.36 1.56-2.76 2.28-4.74 4.92-5.58a6.48 6.48 0 0 1 7.08 1.9 27.26 27.26 0 0 1 1.66 4.32c2.14 9.5 14.34 16 22.5 8.46 1.78-1.64 2.7-4.32 2.68-3.5 0 1.2-2 10-6.4 41 0 .46-.22.68-.7.72s-1.3.3-2-.16a2 2 0 0 1-.72-2.84c.96-1.46 3.2-1.92.3-3.6ZM192 32.62c-1.18-2 0-3.82.86-5.88.22-.56 0-.38 2.62-.68 2.94.34.74 0 .12 4-1.04 6.64 3.22 2-2.12 13.8-.3.66-.4.6-3.38.12-2.1-.34 4.26-7.22 1.9-11.36Zm40.86-1.2c2 .48 2.64.42 2.92 4.16.26 3.26-2.68 3.08-2.12 7.14 1.06 7.42 1.88 7.38.24 7.3-3.48-.22-2.76.74-4-6a5.22 5.22 0 0 1 .58-4.54c3.52-5.48-1.14-8.84 2.36-8.06Zm-51.66 80c-6.86-11.86-2.58-18.3-1.74-26.3.44-4-.2-8.88.2-14 .22-2.86.22-6.7 1.3-8.9.26-.5.5-.92.92-.98 1.4-.16 2 .6 4.52.12a9.56 9.56 0 0 0 6-2.86c2.52-3.06 1.46-4.3 2.46-3.82a6.14 6.14 0 0 0 7.14-.94c.88-.74.26.7 3.54 1.86 2.36.82 5.34-1.08 6.62-2.84.72-1.04.92 2.12 4.8 1.54 1.78-.26.58 3.2 5.76 4.14a6.8 6.8 0 0 0 2.68-.52c1.2-.5-1.38 2.3 2.94 5.56a10.16 10.16 0 0 0 3.66 1.16c.76.16 1.2.98.26 1.62-5.68 3.82-4 9.38-.34 10 .54 0 1.1.14.76.54a4.62 4.62 0 0 0 0 5.64c.78.82-.56.96-.4 4 .14 2.4 2 2.2 1.06 3.28-.64.78 0 2.14.88 1.68.62-.3 2.12-2.58 4.52-1.48s2.22 4.2 1.34 6.62a31.72 31.72 0 0 1-6 9.54 3.74 3.74 0 0 1-5.04.72c-.42-.24-1-.24-1.56.48-2.64 3.36-3.52 9.68-15.84 16.68-5.4 3.06-12 5.24-17.68 2.6-6.36-3.18-9.52-9.54-12.78-15.16Zm-16.7 41.34c16.28-4.24 16.9-4 20-15.78a63.26 63.26 0 0 0 2.44-12.98c1.58.98 7.22 6.9 14.46 5.8 8.38-1.3 12.48-5.08 14-5.62.14 1.86-3.38 11.68-1.14 20 2.46 9.14 25.9 6.52 34.3 8.5-5.1 5.54-8.26 6.82-14.64 10.78a40.74 40.74 0 0 1-15.38 7.2 48.96 48.96 0 0 1-11.6 2h-3a62.26 62.26 0 0 1-35.28-11.78c-9.52-8.88-8.96-6.88-4.16-8.12Zm-40.78 20.76c13.08-12.58 12.74-7.32 16-12.7 1.54-2.5 2.34-2 5.8-3.54 4-1.64 58.22 78.88 83.46 99.52 15.54 12.72 34.66 25.58 34.72 25.7.72 2 1.32 5.84-.6 6.54-2.88 1.06-4.78-.74-8.36-1.26s-10.28 8-21.56 6.94h-1.64c-4.42-.82-5.24-1.62-8 0a4.7 4.7 0 0 1-3.34 1.24 14.1 14.1 0 0 1-9-1.86c-4-2.18-10.28 2-17.74 1.88a11.56 11.56 0 0 1-5.46-2.36c-3.42-2.1-5.76 2.2-10.88.26-2.76-1.06-6.88-.54-10.6-1.24a13.48 13.48 0 0 0-4.56 0c-1.26.54-.42-.88-3.12-2-.88-.36-4-.46-5.52-1.7-1.84-1.5 1.24-2.66 1.66-5.5a10.8 10.8 0 0 1 .84-3.88c2.6-4.34 2.54-5.26 2.66-7.04a17.06 17.06 0 0 1 .58-6.58c1.2-2.26-1.74-10.66-2.26-12.2-4.2-12.3-2.78-5.3-4.72-17.84-1.52-9.86-2.92-9.86-3.04-15.04s1.34-5.32 0-8.6a10.58 10.58 0 0 0-1.58-2 4.2 4.2 0 0 1-.3-5.16 25.66 25.66 0 0 0 3.66-12.44c.5-3.42.78-6.9-.58-6.84-2.34 0-.18 6.82-2.88 14.18-1.34 3.68-4.3 5.76-6.6 8-6.26 6-3.54 6.54-7.24.32-5.32-8.94-4.96-8.78-7.38-11.28-4.2-4.36-3.16-2.82-5.16-5.62a21.2 21.2 0 0 0-7.72-6.72c-.38-.18 7.32-8.14 10.46-11.18Zm34.92 120a28.58 28.58 0 0 1-4.8 3.4c-1.82-.42-2.64-1.14-2.24-2.86.3-1.3.98-2.5 2.24-2 2.64.76 3.32.12 4.8 1.44ZM110.78 192.6c4-4.68 3.14-4.88 4.2-4.14 3.58 2.48 4.3 5.44 9.18 10 2.92 2.68 2.84 3.74 4.74 6.86 1.42 2.32 3.72 6 4.28 6.94a26 26 0 0 1-3.88 4.5c-3.04 2.74-2.48 3-3.24 2.3-4-3.76-6.62-9.7-15.7-16.86-5.56-4.5-6.66-1.26.42-9.6Zm-14.16 15.5c5.22-5.66 3.66-4.12 4.76-5.06 9.32 4.58 21.76 20.2 21.02 20.92-5.02 4.94-4.42 4.84-5.12 4-3.28-3.62-13.38-15.48-18.78-18.68-1.78-1-2.28-.76-1.88-1.18Zm34.72 93.36a8.28 8.28 0 0 0-.6 10c1.44 2.16-.56 2.18-1.34 7.6 0 .74.56.78-8.78-5.48-7.84-5.24-36.86-27.04-42.96-34.22-11.64-13.68-20.66-22-10.76-35.12 8.64-11.5 24.92-30.7 25.76-31.22 8.24 2.9 17.56 16.14 20.92 19.14.56.5 1.12.28-2.96 4.12 0 0-9.4 9.48-13.58 15-2.68 3.54-5.36 4.56-4.82 8a16.12 16.12 0 0 0 3.78 5.28c4.62 5.38 13.26 14.96 30.82 32.26 0 .04 5.06 4.02 4.52 4.64Zm-23.72-27.12c-10.74-13.82-15.72-13.9-11.7-18.48 13.24-15.08 11.14-12.18 27.34-29.4 5.38-5.74 7.68-8.32 8.9-9.44s1.36-.66 2.74-.48c1.78.22 2.96-3.16 9.4-8.52.2-.16.34-.24.32 0-.18 3.82 2.78 4 2.78 6.94a24.14 24.14 0 0 0 .42 12.32c2.44 7.54 2.42 15.42 4 19.54 8.16 22.64 4.26 13.34 4.54 24 0 2.86 0 2.96-2.5 7.3-1.3 2.24-.5 4.46-1.7 6-1.52 1.84-2.4 3.4-1.32 5.46.78 1.48-2 2-1.28 6 .52 3 3.2 2.1 1.84 3.88-.46.6-1.48 1.48-3.32 3.34a31.46 31.46 0 0 1-2.8 2.62c-.62.48-.8 0-1.36-.82a9.26 9.26 0 0 0-4.52-3.76c-4.2-1.88-4.84 0-5.78-.98s-25.36-24.72-26-25.52Zm28.94 29.26c5.4 1.08 7.8 6.7 2.94 7.74-7.5-.48-7.76-8.7-2.94-7.74Zm41.7 19.7c-3.06.12-9.72-3.72-11.46-3.72a22 22 0 0 1-5.36-.78c-2.58-.62-11.76 6.9-17.26 8-4.72 1-9.56-2.56-10-4.28 0-.32-.18-.3 1.8-5.9 1.08-3.06 2.44 1.64 7.64-2.96a8.72 8.72 0 0 0 1.86-4.88c0-.68.86-1.5 3.12-3.6s4.2-4.12 5.84-5.52c8.54-7.32 8-5.28 16.82-4.58 6.32.48 4.22.36 17.5 5.74.96.38 0 2.34-1.72 2a62.3 62.3 0 0 0-22.7-4c-1.02 0-1.78.74-1.66 1.2.52 2 2.9-1.3 23.7 4.66 5.2 1.5 6.18 1.42 6 2.16-.54 1.8-3.34 1.54-7.4.76-5.44-1.04-11.36-2.8-18-1.58-1.08.2-1 0-4.18-.26a.86.86 0 0 0-.66 1.54 50 50 0 0 0 7.26 1.78c2.4.44 3.6 0 5.14.8 4.2 2.44 4.66 1.12 6.88 2.54 5.68 3.62 8.32 3.2 6.84 4.54s-3.12.96-9.5-2.2c-4.26-2.12-9.54-1.04-16.46-2.76-1.82-.46-2.82 1.22-1.54 1.7 9.32 3.42 8.32 1.6 12 4.3 2.54 2 3.14 1.5 6.52 4 .84.64-.3 1.28-1.02 1.3Zm18.98-18c-.42 3.68-2.2 12.24-1.22 17.12.12.58-.18.38-.98.38a73.54 73.54 0 0 1-7.34-.76c-2.92-.44-4.5.46-6.28-1.08-4-3.42-6.96-4-7.88-5.28 4-.2 6.92 2.98 11.22 3.74 2.84.52 5.66 0 6.66-2.68s-5.66-4-9.34-6.58a18.32 18.32 0 0 0-4.24-1.2c-.52-.16-2.34-1.08-1.8-1.12a12.98 12.98 0 0 1 2.76.42c2.22.58 6.68 1.34 10.5 2 1.88.28 4.8-.44 5.2-3.12s-2.12-3.1-4.7-3.74c.82-.4.82-1.64 1.34-1.56s2.38.82 4.34 1.1a6 6 0 0 1 1.56.46c.52.22.34.6.2 1.96Zm2 18c-.34 0-1.02-.14-1.08-.48-.58-3.84-1.16-3.02.96-18.54 0-.62.24-.78 2.76-.58-2.46 11.06-1.14 17.26-1.66 19.12-.1.5-.54.52-.96.5Zm19.18.98c-4 .52-5.46.98-8.12.2-4.58-1.38-8-.22-8-2.16a80.88 80.88 0 0 1 1.34-17.28 1.6 1.6 0 0 1 1.56-1.32h2.7c1.78 0 1.86 1.48 4.34 1.1 1.74-.26 3.48-.38 5.22-.5 1.08 0 .88-.18 1.28 3.26-.74.04.02 16.68-.3 16.72Zm5.14.24c-2.44 0-2.52 0-2.68-.32-.74-1.66 0-17.8-.52-19.5-.24-.76.22-.58 2.58-.58.24 2.52 1.06 20.42.64 20.42Zm13.8-1.44a2 2 0 0 1-1.06.74 32.9 32.9 0 0 1-4.66.52c-4.52-.22-5.7.4-5.76-1.42-.78-25.72-2.84-16.98 4.96-19.66a6 6 0 0 1 3.84-.8c2.2 0 2.24-.3 2.44 1.28a188.44 188.44 0 0 1 .26 19.36Zm2.62-.6c-1.06 0-.54-.12-.5-2.76 0-1.84.16-7.3.2-8.18.3-10-2.74-9.6.88-9.64a.4.4 0 0 1 .3.26 19.38 19.38 0 0 1 .78 6 95.28 95.28 0 0 0 .22 13.5c.14.78-.46.92-1.86.84Zm4.28-.7c-.9-.74-.24-14.34-.66-16.76-.88-5.18-3.5-3.06 8.12-5.06 12-2 12.54-4.3 12.76.46 0 .54.78 12.3 1.56 16 .38 1.58-20.48 6.42-21.76 5.38Zm51.52-14.76c-.22 1.78-.36 2.2-1.12 2.54a59.08 59.08 0 0 0-5.72 2.5c-3.4 2.24-5.78 2.2-8.94 3.22-7.32 2.4-9.24.42-9.22 2.24a1.06 1.06 0 0 0 .26.76c.44.44 1.46.28 2.88.28a13.64 13.64 0 0 0 5.38-.8c6.18-2 6.56-1.18 11.3-4 1-.62 4.7-2 4.88-2.12 2.6-1.12 1.44 6.9 1.46 7.88.2 23.78 1.48 23.18-5.56 34.24a7.26 7.26 0 0 1-6.58 2.82c-.4 0-.54.34-2.8-6-4-10.96-6.44-9.4-6.38-16.4 0-3-.7-4.96-1-8.86a8.88 8.88 0 0 0-5.58-7.7c-.92-.48-.46-1.02-.94-2.48-.26-.78.44-.36 1.14-.3 2.16.18 7.22.2 8.98-.78 2.96-1.68 5.86-1.44 11.24-4.36 5.76-3.12 6.54-3.56 6.34-2.66Zm-30-26.28a2.74 2.74 0 0 0 .3-2.7c-.14-.82-.44-.78 3.74-1.04a26.44 26.44 0 0 1 5.86.88c2.44.36 4 2 8.36 4.66 5.48 3.36 8.84 16 10.32 22.18-6.4 3.08-18 9.76-25.8 7.86-1.86-.46-1.56-10.98-2.32-14.38-.1-.52-.48-1.06-.36-1.5s2.8-1.52 1.68-4.14c-1.28-3.06-2-2.32-1.62-3.16 1.78-4.88-.46-8.14.06-8.64Zm-.36 12.42c.3.56-.12.86-.46 1.22-1 1.14-2 .64-4.66 1.12-1.78.32-5.7 1.54-8 2 0 0-15.22 2.5-19.24 2.54-2.62 0-1.48.98-5.44 1.26s-10.38.54-11.2.6c-5.04.36-5.26.82-6.12.12-1.18-.92-1.68-.62-7.3-.68-2.28 0-6-.2-6-.2-1.54.56-4.96-.84-8-2-3.42-1.38-6.48-2.64-6-2.82 1.82-.76 2.38-1.26 3.72-.6 4.4 2.18 4 3.34 11.74 2.34 0 0 9.22-2.84 11.28-1.86a16.28 16.28 0 0 0 7.48 2.32c4.74.24 5.36 0 6.96-1.02 4.24-2.54 1.38.3 12.26-.2 7.82-.36 15.28-6.38 17.2-6.9a11.22 11.22 0 0 1 4.62 1.08 12.44 12.44 0 0 0 6 .34c.98-.06.98.8 1.28 1.36Zm-1.04-14.72c.14 3.5-.22 2.48-18.8-11.04-38.92-28.42-47.58-51.52-95.42-108.78-.64-.76-2.24-2.18-2.66-2.7s.14-.74.96-1.06.92-.4 2.44.96c6.32 5.68 22.94 29.46 44 54.92 14.32 17.26 20.26 27.38 43.8 47.36a148.96 148.96 0 0 0 16 11.7c9.48 7.24 9.4 5.18 9.8 8.66Zm7.88-61.7c-2.84-4-7.9-7.02-10-10-1.12-1.52.14-1.82-1.02-7.22-1.68-8-.26-9.52-2.4-17.06-.28-.92-1.88-1.18-2 0 0 .78.56 3.34 1.12 7.26a54.22 54.22 0 0 0 1.1 10.48c1.86 8.88-2 18.7-1.78 29.02.42 17.62-1.12 20-.52 27.74.5 6.54.98 2.34 3.78 13.64.14.54-27.7-14.96-56.3-51.62-3.68-4.7-51.38-64.3-51.26-64.34 3.3-1.12 4.16-1.74 5.7-.32 7.32 6.92 12.46 13.68 30.9 18.78 38 10.34 60.82-21.52 64-21.08 8 1.18 8.94.52 12.38 3.82 7.06 6.78 6.46 9.18 16.22 18.5 2.24 2.14 7.72 6.42 10.72 8.92.88.74.5 0-4.76 7.88-3.84 5.82-5.66 10-8.44 14-5.6 7.94-5.14 14.64-7.32 11.62ZM320.14 248c-11.04-2-18.52-10.72-42.92-30.9-1.16-.94.92-1.82 1.68-5.5a13.14 13.14 0 0 1 2.76-4.98c1.22-1.74 8.3-14 9.6-16 .46-.72.46-.74 8.8 6.12 1.04.86 6.96 29.58 11.06 26.82 1.7-1.14-2-3.88-4.32-12.32-4.2-15.78-8.9-41.84-15.68-56.8-.68-1.5-2.8-7.66-4.26-9.34-3.32-3.88-15.82-5.16-19.04-11.86-.94-2-.44-1.28-3.66-11.3-.52-1.66 0-1.86.28-2.18s1.36 0 1.74.42a13.62 13.62 0 0 1 2.26 4c2.98 6.54 1.9 7.48 4 8 4.68 1.32 3.68-1.5 8.56-.66a31.6 31.6 0 0 0 4.52.96c.76 0 1.48-1.18.2-1.68a10.58 10.58 0 0 0-3.88-1.28c-1.36 0 0-3.2-1.2-6.92-2.64-8.6-.92-8.48-3.44-10.6-1.66-1.44-4.16-3.8-6.16-3.58s-1.42 1.24-3.86 6.12c-1.66 3.3-3.58 3.58-2.94 1.22a42.6 42.6 0 0 0 2.32-8.7c.72-4 4-4.64 6-3.42 2.84 1.76 2.3.76 6.16 3.02 4.46 2.6 1.52-5.72 2.46-19.88a50.5 50.5 0 0 1 .92-8.1c0-.34.18-1.52 1.02-1.68s1.26.66 1.38 2c.44 4.8-1.52 18.4 2.16 30.3-1.7 0-3.72-.48-3.22 1.12.1.3 2.52.66 2.58.66 7.46 1.04 12.32 5 12.96 3.54.44-1.04-.76-1.52-1.88-2s-.28-.36 1.68-5.36c1.46-3.76 5-20.3 7.12-20 .66 0 1.2.34 1.18 1.3 0 3.76-4.78 13.84-5.86 23.06-1.22 10.18.96 4.26-1 24.28-.46 4.78 3.02 5.5 9.34 18.88 0 0 7.9 18 10.34 22.56 6 11 14.6 26.86 16.88 37.44 1.12 5.16.46 21.26.2 22.76-1.74 9-10.48 11.6-16.84 10.46Zm-41.02-119.66c0 1.26-.54.48-3.46 1.74-.82.36-2.94.18-3.3-.62-.94-2.12-.32-2.1-1.42-4.62a32.18 32.18 0 0 0-2.48-4.84c-.54-.88-1.86-.86-1.2-1.6 4-4.42 3.18-8.44 4.9-7.66a17.4 17.4 0 0 1 4.22 3.26c1.32.76.16 2.34 2.22 9.38a17.68 17.68 0 0 1 .52 4.96Z" fill="#000001"></path><path d="M282.84 113.24c3.18-.64 16.84 3.88 16 5.28-.24.36-.44.84-1 .74-1.66-.32-8.48-4.24-14.42-4.42a.85.85 0 0 1-.58-1.6Z" fill="#000001"></path><path d="M291.22 132.52c-.48 6.78 8.24 6.46 6.58 8.36-.76.86-1.22.5-1.42.46-10.34-2.84-7.56-10.56-4.38-20.1.52-1.58.94-1.6 1.6-1.46 1.94.4-1.98 7.06-2.38 12.74Z" fill="#000001"></path><path d="M264.6 386.62c.62.88-.4 2.86-1.72 1.54s-.72-2-2.28-5.52c-3.68-8.2-4.46-15.22-7.04-24.74-.12-.46-1.52-3.42-.54-3.64 3.22-.7 2.92 10.28 10.2 28.52a22.68 22.68 0 0 0 1.38 3.84Z" fill="#000001"></path><path d="M252.54 225.62c.4.54-.28 1.04-.68 1.22-2.76 1.22-7.72 5.7-22.9 4-10.58-1.18-11.24-3.7-16-5.24a.92.92 0 0 1-.64-.88c0-.38.24-.72 1.16-.7 3.42.12 2.44 2.14 14.7 4.26 18.2 3.14 22.14-5.54 24.36-2.66Z" fill="#000001"></path><path d="M238.4 91.82c1.08 1 .9 2.58.24 2.86-.34.16-.6 0-1-.8s-.88-.56-1.52.16c-2.96 3.44-.7 4.22-.54 5.32a2.76 2.76 0 0 1-.68 2.24c-.7.88-2 2.22-2.78 1.48s.2-1.7.94-2.66c1.26-1.64-1.18-1.38-.16-4.42s3.94-5.64 5.5-4.18Z" fill="#000001"></path><path d="M226.56 79.7c.42 1.24-1.1 1.78-1.82.86-2.14-2.72-4.26-5.68-10-3.3-2.48 1.02-3.02-2.6 2.76-2.9a7.36 7.36 0 0 1 5.48.92 8.92 8.92 0 0 1 3.58 4.42Z" fill="#000001"></path><path d="M219.32 384.54c.8 2.52-2.14 3.36-2.34 1.02-.38-4.68-2-9.1-2-13.08a149.7 149.7 0 0 0-1.04-16.98 1.004 1.004 0 1 1 2-.18c2 13.12.44 15.04 2.32 23.58.42 1.98.78 4.78 1.06 5.64Z" fill="#000001"></path><path d="M217.78 106.44c-.68 3.48-2.34 2-2.22.76 0-.66.16 0 0-1.22-2.24 1.36-6.88 7.1-11.08 9.52-6.9 4-9.08-2.96-12.72-10.9-1.66-3.64-1.58-4 .74-3.46a58.66 58.66 0 0 0 18.76 2.74c.88 0 2.84 0 2.3-.8-1.56-2 3.6-2.7 4.22 3.36Zm-5.78-.24c.96-.86-2 .74-11.04-.98-9.48-1.78-7.36-2.2-6 1.34 5.04 12.02 7.4 8.52 17.04-.36Z" fill="#000001"></path><path d="M215.64 83.66c.72.26 1 1.1.64 2.8s-2.9 1.66-2.26-1.62a1.34 1.34 0 0 1 1.62-1.18Z" fill="#000001"></path><path d="M212.4 154.5c.34 1.56-7.74 2.76-9.34 2.74s-2.2-.24-7.64-2.58c-1.78-.76-7.4.9-9.28 1.48s-2.88-.78-.22-1.48c7.28-2 8.24-2.74 12.66-.54 2.7 1.34 2.98 1.38 3.68 1.42 6.3.26 9.74-2.96 10.14-1.04Z" fill="#000001"></path><path d="M208.38 93.22c1.5 0 1.14 3.04-1.18 3.54a3.18 3.18 0 0 1-2.66-.76c-.36-.26-.52 0-.94.38-5.82 4.26-12.64-4.48-5.8-10a7.14 7.14 0 0 0 2.42-3.42c.56-.76 1.3-.34 1.36.42A4.62 4.62 0 0 1 200 87.6c-1.76 1.64-3.16 2.68-2.62 5.12a3.22 3.22 0 0 0 5.76.72c1.42-2 1.32.52 3.08 1.2.78.3 1.06-.34 1.32-.7s.2-.68.84-.72Z" fill="#000001"></path><path d="M190.34 67.82c5.42-2 10.14.7 8.86 2.64s-3.58-2.9-8.56-.48c-3.1 1.5-2.88 3.12-3.48 3.3-2.48.72-1.3-3.86 3.18-5.46Z" fill="#000001"></path><path d="M194 79.46c.86-.26 1.72.72 1.6 2 0 .92-.64 2-1.58 1.82-.44 0-1.1-.74-1.08-2s.4-1.66 1.06-1.82Z" fill="#000001"></path><path d="M194.46 224.16a.94.94 0 0 1-.9.94 45.1 45.1 0 0 1-6.54 1.1s-9.18 1-9.18 1.04c-23.56-2.52-21.5-9.16-19.6-8.1a22.72 22.72 0 0 0 5.24 2.86c9.84 2.96 8.22 3.38 24.36 2 2.8-.16 6.52-2 6.62.16Z" fill="#000001"></path><path d="M173.48 352c1.34-.18 1.2 1.34 1.52 3.56-.7 7.26-4 14.14-3.72 19.12.5 7.52-1.2 6.62-.8 10.66 0 .52 0 1.88-.84 2-1.6.14-1.62-1.44-1.82-3.54a21.22 21.22 0 0 0 1.2-8.18c-.88-6.92 4.78-17.5 3.76-21.54-.22-.82-.24-1.92.7-2.08Z" fill="#000001"></path></g></g></svg>